<?xml version="1.0" encoding="UTF-8"?>
<svg width="180px" height="180px" viewBox="0 0 180 180" version="1.1" xmlns="http://www.w3.org/2000/svg" xmlns:xlink="http://www.w3.org/1999/xlink">
    <title>Icon</title>
    <defs>
        <path d="M0,0 L180,0 L180,180 L0,180 L0,0 Z" id="path-1"></path>
    </defs>
    <g id="Icon" stroke="none" fill="none" xlink:href="#path-1" fill-rule="evenodd">
        <use fill="#000000" xlink:href="#path-1"></use>
        <g id="," stroke-width="1" transform="translate(37, 79)" fill="#EEEEEE">
            <path d="M0,16.4329609 C0,11.7476723 1.52601156,7.83752328 4.57803468,4.70251397 C7.6300578,1.56750466 11.583815,0 16.4393064,0 C22.4046243,0 27.1560694,2.53212291 30.6936416,7.59636872 C34.2312139,12.6606145 36,18.9478585 36,26.4581006 C36,31.9702048 35.2196532,37.3617318 33.6589595,42.6326816 C32.0982659,47.9036313 30.1734104,52.33054 27.8843931,55.9134078 C25.5953757,59.4962756 23.2196532,62.7346369 20.7572254,65.6284916 C18.2947977,68.5223464 16.1271676,70.6410615 14.2543353,71.9846369 C12.3815029,73.3282123 11.0982659,74 10.4046243,74 C9.57225434,74 8.68786127,73.5521415 7.75144509,72.6564246 C6.8150289,71.7607076 6.34682081,70.7960894 6.34682081,69.7625698 C6.34682081,68.9357542 7.00578035,67.9711359 8.32369942,66.8687151 C20.5317919,56.3957169 27.1907514,43.6834264 28.300578,28.7318436 C25.4566474,31.556797 21.5722543,32.9692737 16.6473988,32.9692737 C11.5144509,32.9692737 7.4566474,31.3500931 4.47398844,28.1117318 C1.49132948,24.8733706 0,20.9804469 0,16.4329609 Z" id="Path" fill-rule="nonzero"></path>
        </g>
    </g>
</svg>