<?xml version="1.0" encoding="UTF-8"?>
<svg width="180px" height="180px" viewBox="0 0 180 180" version="1.1" xmlns="http://www.w3.org/2000/svg" xmlns:xlink="http://www.w3.org/1999/xlink">
    <title>Icon@2x</title>
    <defs>
        <path d="M0,0 L180,0 L180,180 L0,180 L0,0 Z" id="path-1"></path>
    </defs>
    <g id="Icon" stroke="none" fill="none" xlink:href="#path-1" fill-rule="evenodd">
        <use fill="#EEEEEE" xlink:href="#path-1"></use>
        <g id="H,F" stroke-width="1" transform="translate(31, 48)" fill="#000000">
            <path d="M2.56933594,65 L2.56933594,62.8466797 L4.24414062,62.8466797 C6.7734375,62.8466797 8.32861328,62.6359049 8.90966797,62.2143555 C9.49072266,61.792806 9.78125,60.8984375 9.78125,59.53125 L9.78125,22.6513672 C9.78125,21.3069661 9.48502604,20.4239909 8.89257813,20.0024414 C8.30013021,19.5808919 6.75065104,19.3701172 4.24414062,19.3701172 L2.56933594,19.3701172 L2.56933594,17.1826172 C4.20996094,17.3193359 7.66210937,17.3876953 12.9257813,17.3876953 C18.1438802,17.3876953 21.5732422,17.3193359 23.2138672,17.1826172 L23.2138672,19.3701172 L21.5390625,19.3701172 C19.0097656,19.3701172 17.4545898,19.5808919 16.8735352,20.0024414 C16.2924805,20.4239909 16.0019531,21.3069661 16.0019531,22.6513672 L16.0019531,39.0234375 L36.9199219,39.0234375 L36.9199219,22.6513672 C36.9199219,21.3069661 36.6293945,20.4239909 36.0483398,20.0024414 C35.4672852,19.5808919 33.9121094,19.3701172 31.3828125,19.3701172 L29.7080078,19.3701172 L29.7080078,17.1826172 C31.3486328,17.3193359 34.8007813,17.3876953 40.0644531,17.3876953 C45.2825521,17.3876953 48.7119141,17.3193359 50.3525391,17.1826172 L50.3525391,19.3701172 L48.6777344,19.3701172 C46.1484375,19.3701172 44.5932617,19.5808919 44.012207,20.0024414 C43.4311523,20.4239909 43.140625,21.3069661 43.140625,22.6513672 L43.140625,59.53125 C43.140625,60.875651 43.436849,61.7643229 44.0292969,62.1972656 C44.6217448,62.6302083 46.171224,62.8466797 48.6777344,62.8466797 L50.3525391,62.8466797 L50.3525391,65 C48.7119141,64.8632813 45.2597656,64.7949219 39.9960937,64.7949219 C34.7779948,64.7949219 31.3486328,64.8632813 29.7080078,65 L29.7080078,62.8466797 L31.3828125,62.8466797 C33.9121094,62.8466797 35.4672852,62.6359049 36.0483398,62.2143555 C36.6293945,61.792806 36.9199219,60.8984375 36.9199219,59.53125 L36.9199219,41.2109375 L16.0019531,41.2109375 L16.0019531,59.53125 C16.0019531,60.875651 16.2924805,61.7643229 16.8735352,62.1972656 C17.4545898,62.6302083 19.0097656,62.8466797 21.5390625,62.8466797 L23.2138672,62.8466797 L23.2138672,65 C21.5732422,64.8632813 18.1210937,64.7949219 12.8574219,64.7949219 C7.63932292,64.7949219 4.20996094,64.8632813 2.56933594,65 Z" id="Path" fill-rule="nonzero"></path>
            <path d="M59.7519531,63.8720703 C59.0911458,63.1201172 58.7607422,62.2542318 58.7607422,61.2744141 C58.7607422,60.2945964 59.0854492,59.4344076 59.7348633,58.6938477 C60.3842773,57.9532878 61.3014323,57.5830078 62.4863281,57.5830078 C63.8763021,57.5830078 64.9700521,58.2495117 65.7675781,59.5825195 C66.5651042,60.9155273 66.9638672,62.6985677 66.9638672,64.9316406 C66.9638672,67.3470052 66.4739583,69.6769206 65.4941406,71.9213867 C64.5143229,74.1658529 63.5458984,75.8235677 62.5888672,76.8945312 C61.6318359,77.9654948 60.9596354,78.5009766 60.5722656,78.5009766 C60.1165365,78.5009766 59.8886719,78.2503255 59.8886719,77.7490234 C59.8886719,77.5667318 60.0481771,77.3046875 60.3671875,76.9628906 C63.7167969,73.3626302 65.4029948,69.3522135 65.4257812,64.9316406 C65.4257812,64.2252604 65.3802083,63.8720703 65.2890625,63.8720703 L65.1181641,64.0087891 C64.320638,64.6695964 63.4433594,65 62.4863281,65 C61.3242188,65 60.4127604,64.6240234 59.7519531,63.8720703 Z" id="Path" fill-rule="nonzero"></path>
            <path d="M74.4492188,65 L74.4492188,62.8466797 L76.1240234,62.8466797 C78.6533203,62.8466797 80.2084961,62.6359049 80.7895508,62.2143555 C81.3706055,61.792806 81.6611328,60.8984375 81.6611328,59.53125 L81.6611328,22.8564453 C81.6611328,21.5120443 81.3649089,20.629069 80.7724609,20.2075195 C80.180013,19.7859701 78.6305339,19.5751953 76.1240234,19.5751953 L74.4492188,19.5751953 L74.4492188,17.3876953 L112.867188,17.3876953 L114.81543,33.1445312 L113.072266,33.1445312 C112.753255,30.4785156 112.382975,28.3878581 111.961426,26.8725586 C111.539876,25.3572591 110.850586,23.9957682 109.893555,22.7880859 C108.936523,21.5804036 107.654785,20.7430013 106.04834,20.2758789 C104.441895,19.8087565 102.328451,19.5751953 99.7080078,19.5751953 L91.2998047,19.5751953 C89.7047526,19.5751953 88.7363281,19.7403971 88.3945312,20.0708008 C88.0527344,20.4012044 87.8818359,21.1702474 87.8818359,22.3779297 L87.8818359,40.0830078 L93.8974609,40.0830078 C97.0647786,40.0830078 99.0927734,39.5133464 99.9814453,38.3740234 C100.870117,37.2347005 101.314453,35.069987 101.314453,31.8798828 L103.057617,31.8798828 L103.057617,50.4394531 L101.314453,50.4394531 C101.314453,47.2265625 100.870117,45.0561523 99.9814453,43.9282227 C99.0927734,42.800293 97.0647786,42.2363281 93.8974609,42.2363281 L87.8818359,42.2363281 L87.8818359,59.4628906 C87.8818359,60.4427083 87.9615885,61.1206055 88.1210937,61.496582 C88.280599,61.8725586 88.8502604,62.191569 89.8300781,62.4536133 C90.8098958,62.7156576 92.3707682,62.8466797 94.5126953,62.8466797 L96.8369141,62.8466797 L96.8369141,65 C95.1507161,64.8632813 91.2314453,64.7949219 85.0791016,64.7949219 C79.633138,64.7949219 76.0898438,64.8632813 74.4492188,65 Z" id="Path" fill-rule="nonzero"></path>
        </g>
    </g>
</svg>