<?xml version="1.0" encoding="UTF-8"?>
<svg width="138px" height="27px" viewBox="0 0 138 27" version="1.1" xmlns="http://www.w3.org/2000/svg" xmlns:xlink="http://www.w3.org/1999/xlink">
    <title>Letters</title>
    <g id="Letters" stroke="none" fill="none" fill-rule="nonzero">
        <path d="M1.96,20 L5.08,20 C5.34,20 5.5,19.9 5.5,19.72 L5.5,19.66 C5.5,19.22 4.7,19.12 4.7,18.34 L4.72,13.34 L11.68,13.34 L11.68,18.34 C11.68,19.12 10.94,19.22 10.94,19.66 L10.94,19.72 C10.94,19.9 11.1,20 11.36,20 L14.48,20 C14.74,20 14.92,19.9 14.92,19.72 L14.92,19.66 C14.92,19.22 14.1,19.12 14.1,18.34 L14.1,7.46 C14.1,6.68 14.92,6.58 14.92,6.14 L14.92,6.08 C14.92,5.9 14.74,5.8 14.48,5.8 L11.36,5.8 C11.1,5.8 10.94,5.9 10.94,6.08 L10.94,6.14 C10.94,6.58 11.68,6.68 11.68,7.46 L11.68,12.24 L4.7,12.24 L4.72,7.46 C4.72,6.68 5.5,6.58 5.5,6.14 L5.5,6.08 C5.5,5.9 5.34,5.8 5.08,5.8 L1.96,5.8 C1.7,5.8 1.54,5.9 1.54,6.08 L1.54,6.14 C1.54,6.58 2.28,6.68 2.28,7.46 L2.28,18.34 C2.28,19.12 1.54,19.22 1.54,19.66 L1.54,19.72 C1.54,19.9 1.7,20 1.96,20 Z" id="Path" fill="#FFFFFF"></path>
        <path d="M25.84,18.12 L25.84,10.58 C25.84,10.28 25.62,10.22 25.2,10.28 L23.06,10.62 C22.84,10.66 22.72,10.8 22.72,10.98 L22.72,11.04 C22.72,11.44 23.5,11.56 23.5,12.38 L23.5,16.54 C23.5,18.18 22.56,19.24 21.36,19.24 C20.06,19.24 19.36,18.16 19.36,16.06 L19.4,10.58 C19.4,10.28 19.14,10.22 18.72,10.28 L16.62,10.62 C16.4,10.66 16.26,10.8 16.26,10.98 L16.26,11.04 C16.26,11.44 17.02,11.56 17.02,12.38 L17.02,15.84 C17.02,18.76 18.6,20.2 20.74,20.2 C22.16,20.2 23.18,19.64 23.74,18.64 C23.72,19.76 24.3,20.12 25.36,20.12 C26.34,20.12 26.86,20.02 26.86,19.62 C26.86,18.96 25.84,19.64 25.84,18.12 Z" id="Path" fill="#FFFFFF"></path>
        <path d="M37.92,18.32 L37.68,14.54 C37.48,11.4 35.76,10.2 33.88,10.2 C32.5,10.2 31.4,10.86 30.84,11.94 L30.84,10.64 C30.84,10.3 30.64,10.06 30.22,10.28 L28.28,11.22 C28.06,11.32 27.92,11.42 27.92,11.58 L27.92,11.64 C27.92,12.08 28.82,12.1 28.82,12.98 L28.82,18.34 C28.82,19.12 28.02,19.2 28.02,19.64 L28.02,19.72 C28.02,19.9 28.18,20.02 28.44,20.02 L31.54,20.02 C31.82,20.02 31.98,19.9 31.98,19.72 L31.98,19.64 C31.98,19.2 31.16,19.12 31.16,18.34 L31.16,13.64 C31.16,12.2 31.98,11.16 33.26,11.16 C34.48,11.16 35.26,12.18 35.36,14.46 L35.56,18.32 C35.6,19.12 34.84,19.2 34.84,19.64 L34.84,19.72 C34.84,19.9 35,20.02 35.28,20.02 L38.2,20.02 C38.46,20.02 38.64,19.9 38.64,19.72 L38.64,19.64 C38.64,19.2 37.96,19.12 37.92,18.32 Z" id="Path" fill="#FFFFFF"></path>
        <path d="M48.32,10.4 C46.04,10.4 45.6,10.2 44.28,10.2 C41.54,10.2 39.68,11.9 39.68,14.32 C39.68,16.54 41.64,18.24 44.18,18.24 C44.44,18.24 44.68,18.22 44.92,18.2 C46.02,18.32 46.68,19.12 46.68,20.26 C46.68,21.48 45.74,22.32 44.3,22.32 C41.46,22.3 42.04,19.22 40.56,19.22 C39.9,19.22 39.6,19.68 39.6,20.16 C39.6,21.58 41.2,23.06 44.22,23.06 C46.98,23.06 49.04,21.94 49.04,20.16 C49.04,19.06 48.3,18.16 46.56,17.76 C47.98,17.1 48.88,15.82 48.88,14.22 C48.88,13.24 48.36,12.22 47.62,11.56 C48.22,11.4 48.94,11.48 49.18,10.96 C49.36,10.66 49.2,10.4 48.32,10.4 Z M42,13.3 C42,11.94 42.72,10.96 43.9,10.96 C45.5,10.96 46.56,12.92 46.56,15.1 C46.56,16.46 45.8,17.46 44.56,17.46 C43.16,17.46 42,15.56 42,13.3 Z" id="Shape" fill="#FFFFFF"></path>
        <path d="M56.04,10.2 C54.76,10.2 53.82,10.9 53.38,12.18 L53.38,10.62 C53.38,10.28 53.22,10.08 52.8,10.28 L50.84,11.18 C50.62,11.3 50.48,11.44 50.48,11.6 L50.48,11.66 C50.48,12.1 51.34,12.14 51.34,12.96 L51.34,18.34 C51.34,19.12 50.58,19.2 50.58,19.64 L50.58,19.72 C50.58,19.9 50.74,20 51,20 L54.1,20 C54.36,20 54.52,19.9 54.52,19.72 L54.52,19.64 C54.52,19.2 53.6,19.12 53.6,18.34 L53.6,14.06 C53.6,12.76 54.04,11.58 54.98,11.58 C56.14,11.58 55.54,13.14 56.84,13.14 C57.6,13.14 57.88,12.56 57.88,11.88 C57.88,10.96 57.22,10.2 56.04,10.2 Z" id="Path" fill="#FFFFFF"></path>
        <path d="M68.46,10.4 L66.24,10.4 C66.02,10.4 65.88,10.52 65.88,10.7 L65.88,10.76 C65.88,11.22 67.18,11.26 66.7,12.4 L64.22,18.24 L61.58,12.18 C61.16,11.24 61.9,11.22 61.9,10.76 L61.9,10.7 C61.9,10.52 61.76,10.4 61.56,10.4 L58.4,10.4 C58.2,10.4 58.04,10.5 58.04,10.68 L58.04,10.76 C58.04,11.22 58.64,11.28 59.06,12.16 L62.96,20.46 C62.34,22 61.5,23.44 60.72,23.44 C59.58,23.44 59.98,21.3 58.64,21.3 C58.02,21.3 57.66,21.72 57.66,22.3 C57.66,23.2 58.7,24.26 60.36,24.26 C62.36,24.26 63.36,22.02 64.06,20.44 L67.84,12.16 C68.22,11.3 68.8,11.22 68.8,10.76 L68.8,10.68 C68.8,10.5 68.66,10.4 68.46,10.4 Z" id="Path" fill="#FFFFFF"></path>
        <path d="M74.12,20 L77.26,20 C77.52,20 77.7,19.9 77.7,19.72 L77.7,19.66 C77.7,19.22 76.88,19.12 76.88,18.34 L76.88,13.86 L80.02,13.86 C80.78,13.86 80.98,15.12 81.44,15.12 L81.58,15.12 C81.76,15.12 81.88,14.96 81.88,14.74 L81.88,11.9 C81.88,11.66 81.76,11.52 81.58,11.52 L81.44,11.52 C80.98,11.52 80.78,12.84 80.02,12.84 L76.88,12.84 L76.88,7.56 C76.88,7.02 77.16,6.82 77.56,6.82 L80.9,6.82 C82.06,6.82 82.64,8.94 83.44,8.94 L83.52,8.94 C83.76,8.94 83.92,8.78 83.86,8.48 L83.38,6.32 C83.32,5.98 83.18,5.8 82.82,5.8 L74.08,5.8 C73.84,5.8 73.68,5.9 73.68,6.08 L73.68,6.14 C73.68,6.58 74.44,6.66 74.44,7.46 L74.44,18.34 C74.44,19.12 73.68,19.22 73.68,19.66 L73.68,19.72 C73.68,19.9 73.86,20 74.12,20 Z" id="Path" fill="#FFFFFF"></path>
        <path d="M89.14,20.2 C92.04,20.2 93.96,18 93.96,15.26 C93.96,12.5 91.84,10.2 88.68,10.2 C85.94,10.2 83.72,12.26 83.72,15.1 C83.72,17.76 85.74,20.2 89.14,20.2 Z M89.44,19.44 C87.42,19.44 86.08,16.8 86.08,14.32 C86.08,12.12 87,10.96 88.42,10.96 C90.26,10.96 91.6,13.28 91.6,16.08 C91.6,18.24 90.68,19.44 89.44,19.44 Z" id="Shape" fill="#FFFFFF"></path>
        <path d="M100.58,20.2 C103.48,20.2 105.4,18 105.4,15.26 C105.4,12.5 103.28,10.2 100.12,10.2 C97.38,10.2 95.16,12.26 95.16,15.1 C95.16,17.76 97.18,20.2 100.58,20.2 Z M100.88,19.44 C98.86,19.44 97.52,16.8 97.52,14.32 C97.52,12.12 98.44,10.96 99.86,10.96 C101.7,10.96 103.04,13.28 103.04,16.08 C103.04,18.24 102.12,19.44 100.88,19.44 Z" id="Shape" fill="#FFFFFF"></path>
        <path d="M107.08,20 L110.12,20 C110.38,20 110.56,19.88 110.56,19.7 L110.56,19.64 C110.56,19.18 109.74,19.12 109.74,18.34 L109.74,5.34 C109.74,5.04 109.48,4.8 109.02,5.02 L107,6.02 C106.8,6.12 106.66,6.2 106.66,6.38 L106.66,6.44 C106.66,6.8 107.4,6.96 107.4,7.8 L107.4,18.34 C107.4,19.12 106.66,19.18 106.66,19.64 L106.66,19.7 C106.66,19.88 106.82,20 107.08,20 Z" id="Path" fill="#FFFFFF"></path>
        <path d="M113.82,8.74 C114.8,8.74 115.44,8.12 115.44,7.24 C115.44,6.38 114.8,5.74 113.82,5.74 C112.82,5.74 112.16,6.38 112.16,7.24 C112.16,8.12 112.82,8.74 113.82,8.74 Z M112.34,20 L115.38,20 C115.64,20 115.82,19.88 115.82,19.7 L115.82,19.62 C115.82,19.18 115,19.1 115,18.32 L115,10.62 C115,10.3 114.74,10.06 114.28,10.28 L112.28,11.28 C112.06,11.4 111.92,11.48 111.92,11.64 L111.92,11.7 C111.92,12.06 112.66,12.26 112.66,13.08 L112.66,18.32 C112.66,19.1 111.92,19.18 111.92,19.62 L111.92,19.7 C111.92,19.88 112.08,20 112.34,20 Z" id="Shape" fill="#FFFFFF"></path>
        <path d="M121.2,20.18 C123.78,20.18 125.4,18.96 125.4,17.4 C125.4,13.44 119.58,15.18 119.58,12.46 C119.58,11.6 120.28,10.92 121.26,10.92 C123.36,10.92 122.82,13.44 124.22,13.44 C124.74,13.44 125.14,13.08 125.14,12.58 C125.14,11.42 123.64,10.2 121.14,10.2 C118.84,10.2 117.22,11.42 117.22,13.04 C117.22,17.04 123.04,15.26 123.04,17.96 C123.04,18.98 122.26,19.5 121.2,19.5 C118.86,19.5 119.52,16.96 118.02,16.96 C117.44,16.96 117.02,17.26 117.02,17.88 C117.02,18.98 118.58,20.18 121.2,20.18 Z" id="Path" fill="#FFFFFF"></path>
        <path d="M136.4,18.3 L136.16,14.42 C135.98,11.4 134.26,10.2 132.38,10.2 C131.18,10.2 130.18,10.7 129.58,11.54 L129.6,5.32 C129.6,4.96 129.36,4.82 128.96,5 L126.82,5.94 C126.6,6.04 126.48,6.18 126.48,6.36 L126.48,6.42 C126.48,6.82 127.32,6.88 127.32,7.72 L127.32,18.34 C127.32,19.12 126.52,19.18 126.52,19.64 L126.52,19.7 C126.52,19.88 126.68,20 126.94,20 L130.04,20 C130.3,20 130.48,19.88 130.48,19.7 L130.48,19.64 C130.48,19.18 129.66,19.12 129.66,18.34 L129.66,13.64 C129.66,12.2 130.48,11.16 131.76,11.16 C132.98,11.16 133.76,12.18 133.86,14.36 L134.06,18.32 C134.1,19.1 133.34,19.18 133.34,19.64 L133.34,19.72 C133.34,19.9 133.5,20 133.76,20 L136.7,20 C136.96,20 137.12,19.9 137.12,19.72 L137.12,19.64 C137.12,19.18 136.46,19.1 136.4,18.3 Z" id="Path" fill="#FFFFFF"></path>
    </g>
</svg>