<?xml version="1.0" encoding="UTF-8"?>
<svg width="185px" height="24px" viewBox="0 0 185 24" version="1.1" xmlns="http://www.w3.org/2000/svg" xmlns:xlink="http://www.w3.org/1999/xlink">
    <title>Hungry, Foolish</title>
    <g id="Page-1" stroke="none" stroke-width="1" fill="none" fill-rule="evenodd">
        <g id="Hungry,-Foolish" transform="translate(-2.5, -12)" fill="#FFFFFF" fill-rule="nonzero">
            <path d="M14.49,29.25 C14.49,29.64 14.85,30 15.24,30 C15.66,30 15.99,29.67 15.99,29.25 L15.99,14.7 C15.99,14.28 15.66,13.95 15.24,13.95 C14.85,13.95 14.49,14.28 14.49,14.7 L14.49,20.7 L4.44,20.7 L4.44,14.7 C4.44,14.28 4.11,13.95 3.69,13.95 C3.3,13.95 2.94,14.28 2.94,14.7 L2.94,29.25 C2.94,29.64 3.3,30 3.69,30 C4.11,30 4.44,29.67 4.44,29.25 L4.44,22.2 L14.49,22.2 L14.49,29.25 Z" id="Path"></path>
            <path d="M29.79,29.25 C29.79,29.64 30.15,30 30.54,30 C30.96,30 31.29,29.67 31.29,29.25 L31.29,18.99 C31.29,18.57 30.96,18.24 30.54,18.24 C30.15,18.24 29.79,18.57 29.79,18.99 L29.79,25.8 C28.65,27.33 26.94,28.5 25.29,28.5 C23.7,28.5 22.68,27.45 22.68,24.99 L22.68,18.99 C22.68,18.57 22.35,18.24 21.93,18.24 C21.54,18.24 21.18,18.57 21.18,18.99 L21.18,24.99 C21.18,28.83 23.04,30 25.29,30 C26.85,30 28.47,29.13 29.79,27.9 L29.79,29.25 Z" id="Path"></path>
            <path d="M45,29.25 C45,29.64 45.36,30 45.75,30 C46.17,30 46.5,29.67 46.5,29.25 L46.5,23.25 C46.5,19.41 44.64,18.24 42.39,18.24 C40.71,18.24 39.24,18.99 37.89,20.07 L37.89,18.99 C37.89,18.57 37.56,18.24 37.14,18.24 C36.75,18.24 36.39,18.57 36.39,18.99 L36.39,29.25 C36.39,29.64 36.75,30 37.14,30 C37.56,30 37.89,29.67 37.89,29.25 L37.89,22.05 C39.15,20.79 40.71,19.74 42.39,19.74 C43.98,19.74 45,20.79 45,23.25 L45,29.25 Z" id="Path"></path>
            <path d="M52.86,34.68 C52.86,35.1 53.22,35.43 53.61,35.43 C58.95,35.43 61.29,32.43 61.29,27.87 L61.29,18.99 C61.29,18.57 60.96,18.24 60.54,18.24 C60.18,18.24 59.85,18.51 59.79,18.93 C58.65,18.48 57.63,18.24 56.25,18.24 C53.22,18.24 50.22,20.61 50.22,24.39 C50.22,28.08 52.74,29.64 55.23,29.64 C56.85,29.64 58.47,29.01 59.79,27.75 L59.79,27.87 C59.79,31.53 57.87,33.93 53.61,33.93 C53.22,33.93 52.86,34.29 52.86,34.68 Z M59.79,25.5 C58.62,27.24 56.94,28.14 55.23,28.14 C53.46,28.14 51.72,27 51.72,24.39 C51.72,21.57 53.94,19.74 56.25,19.74 C57.66,19.74 58.56,20.01 59.79,20.58 L59.79,25.5 Z" id="Shape"></path>
            <path d="M66.39,29.25 C66.39,29.64 66.75,30 67.14,30 C67.56,30 67.89,29.67 67.89,29.25 L67.89,23.19 C69.15,21.27 70.65,20.04 72.99,19.74 C73.38,19.68 73.65,19.35 73.65,18.96 C73.65,18.57 73.35,18.27 72.93,18.27 C71.28,18.27 69.45,19.11 67.89,20.76 L67.89,18.99 C67.89,18.57 67.56,18.24 67.14,18.24 C66.75,18.24 66.39,18.57 66.39,18.99 L66.39,29.25 Z" id="Path"></path>
            <path d="M76.26,34.5 C76.26,34.92 76.68,35.22 77.04,35.22 C77.16,35.22 77.28,35.19 77.37,35.13 C79.38,33.99 81.18,32.61 82.95,29.61 C84.54,26.85 86.28,22.71 87.15,20.07 C87.27,19.71 87.45,19.11 87.45,18.99 C87.45,18.6 87.12,18.24 86.7,18.24 C86.31,18.24 86.07,18.45 85.98,18.78 C85.11,21.72 83.64,25.23 82.2,27.81 C80.82,25.59 79.17,22.62 77.79,18.72 C77.67,18.39 77.34,18.21 77.04,18.21 C76.62,18.21 76.32,18.6 76.32,18.93 C76.32,19.11 76.38,19.29 76.71,20.19 C77.97,23.61 79.83,26.88 81.36,29.28 C79.86,31.68 78.33,32.85 76.65,33.81 C76.41,33.96 76.26,34.23 76.26,34.5 Z" id="Path"></path>
            <path d="M91.65,29.1 C91.65,28.44 91.56,27.81 91.44,27.39 C91.32,27.06 91.02,26.88 90.69,26.88 C90.33,26.88 89.97,27.21 89.97,27.66 C89.97,27.96 90.15,28.17 90.15,29.1 C90.15,30.33 89.73,31.53 89.04,32.46 C88.95,32.58 88.89,32.76 88.89,32.91 C88.89,33.33 89.22,33.66 89.64,33.66 C89.88,33.66 90.09,33.57 90.24,33.36 C91.11,32.19 91.65,30.63 91.65,29.1 Z" id="Path"></path>
            <path d="M105.9,29.25 C105.9,29.64 106.26,30 106.65,30 C107.07,30 107.4,29.67 107.4,29.25 L107.4,22.74 L113.67,22.74 C114.09,22.74 114.42,22.38 114.42,21.99 C114.42,21.57 114.09,21.24 113.67,21.24 L107.4,21.24 L107.4,15.45 L115.2,15.45 C115.62,15.45 115.95,15.09 115.95,14.7 C115.95,14.28 115.62,13.95 115.2,13.95 L106.65,13.95 C106.26,13.95 105.9,14.25 105.9,14.7 L105.9,29.25 Z" id="Path"></path>
            <path d="M129.99,24.27 C129.99,20.88 127.68,18.12 124.02,18.12 C120.33,18.12 118.05,20.88 118.05,24.21 C118.05,27.54 120.39,30.12 124.02,30.12 C127.68,30.12 129.99,27.57 129.99,24.27 Z M119.55,24.21 C119.55,21.72 121.23,19.62 124.02,19.62 C126.78,19.62 128.49,21.72 128.49,24.27 C128.49,26.73 126.72,28.62 124.02,28.62 C121.29,28.62 119.55,26.7 119.55,24.21 Z" id="Shape"></path>
            <path d="M144.99,24.27 C144.99,20.88 142.68,18.12 139.02,18.12 C135.33,18.12 133.05,20.88 133.05,24.21 C133.05,27.54 135.39,30.12 139.02,30.12 C142.68,30.12 144.99,27.57 144.99,24.27 Z M134.55,24.21 C134.55,21.72 136.23,19.62 139.02,19.62 C141.78,19.62 143.49,21.72 143.49,24.27 C143.49,26.73 141.72,28.62 139.02,28.62 C136.29,28.62 134.55,26.7 134.55,24.21 Z" id="Shape"></path>
            <path d="M149.19,13.92 L149.19,29.25 C149.19,29.64 149.55,30 149.94,30 C150.36,30 150.69,29.67 150.69,29.25 L150.69,13.92 C150.69,13.5 150.36,13.17 149.94,13.17 C149.55,13.17 149.19,13.5 149.19,13.92 Z" id="Path"></path>
            <path d="M158.1,13.59 C158.1,12.69 157.56,12.09 156.87,12.09 C156.15,12.09 155.61,12.69 155.61,13.59 C155.61,14.46 156.18,15 156.9,15 C157.53,15 158.1,14.52 158.1,13.59 Z M156.15,18.99 L156.15,29.25 C156.15,29.64 156.51,30 156.9,30 C157.32,30 157.65,29.67 157.65,29.25 L157.65,18.99 C157.65,18.57 157.32,18.24 156.9,18.24 C156.51,18.24 156.15,18.57 156.15,18.99 Z" id="Shape"></path>
            <path d="M167.19,19.65 C168.36,19.65 169.41,19.86 169.83,19.98 C170.16,20.07 170.34,20.1 170.46,20.1 C170.85,20.1 171.21,19.8 171.21,19.35 C171.21,19.02 171,18.69 170.67,18.63 C169.74,18.36 168.54,18.15 167.19,18.15 C163.65,18.15 162.6,19.92 162.6,21.39 C162.6,22.71 163.32,24.18 166.89,24.54 L168.09,24.66 C169.98,24.84 170.7,25.62 170.7,26.67 C170.7,27.81 169.53,28.62 167.37,28.62 C166.05,28.62 164.7,28.35 163.95,28.05 C163.44,27.84 163.29,27.78 163.2,27.78 C162.81,27.78 162.42,28.14 162.42,28.5 C162.42,28.8 162.6,29.1 162.87,29.22 C164.28,29.82 165.87,30.12 167.37,30.12 C171.18,30.12 172.2,28.29 172.2,26.67 C172.2,25.08 171.27,23.46 168.21,23.16 L167.01,23.04 C164.91,22.83 164.1,22.32 164.1,21.42 C164.1,20.43 165.24,19.65 167.19,19.65 Z" id="Path"></path>
            <path d="M185.04,29.25 C185.04,29.64 185.4,30 185.79,30 C186.21,30 186.54,29.67 186.54,29.25 L186.54,23.25 C186.54,19.41 184.68,18.24 182.43,18.24 C180.75,18.24 179.28,19.02 177.93,20.07 L177.93,13.92 C177.93,13.5 177.6,13.17 177.18,13.17 C176.79,13.17 176.43,13.5 176.43,13.92 L176.43,29.25 C176.43,29.64 176.79,30 177.18,30 C177.6,30 177.93,29.67 177.93,29.25 L177.93,22.05 C179.19,20.79 180.75,19.74 182.43,19.74 C184.02,19.74 185.04,20.79 185.04,23.25 L185.04,29.25 Z" id="Path"></path>
        </g>
    </g>
</svg>