<?xml version="1.0" encoding="UTF-8"?>
<svg width="600px" height="180px" viewBox="0 0 600 180" version="1.1" xmlns="http://www.w3.org/2000/svg" xmlns:xlink="http://www.w3.org/1999/xlink">
    <style>
        #lines {
            stroke: #ddd;
        }
        #arrows {
            stroke: #bbb;
        }
        #name {
            fill: #000;
        }
    </style>
    <g stroke="none" stroke-width="1" fill="none" fill-rule="evenodd">
        <g id="lines" transform="translate(48.000000, 43.000000)" stroke-linecap="round">
            <line x1="22" y1="10" x2="22" y2="74"></line>
            <line x1="14" y1="13" x2="14" y2="78"></line>
            <line x1="492" y1="-8.4432461e-14" x2="492" y2="78"></line>
            <line x1="484" y1="10" x2="484" y2="83"></line>
            <line x1="270" y1="15" x2="270" y2="74"></line>
            <line x1="262" y1="10" x2="262" y2="78"></line>
            <line x1="244" y1="13" x2="244" y2="78"></line>
            <line x1="236" y1="7" x2="236" y2="74"></line>
            <line x1="10" y1="26" x2="500" y2="26"></line>
            <line x1="6" y1="18" x2="510" y2="18"></line>
            <line x1="6" y1="62" x2="505" y2="62"></line>
            <line x1="2.36247653e-12" y1="70" x2="500" y2="70"></line>
        </g>
        <g id="arrows" transform="translate(271.000000, 16.000000)" stroke-linecap="round" stroke-linejoin="round">
            <line x1="-4.18307142" y1="97.6581174" x2="43.6054353" y2="97.6581174" transform="translate(19.711182, 97.658117) rotate(-70.000000) translate(-19.711182, -97.658117) "></line>
            <line x1="10.6646553" y1="33.8977651" x2="75.1714493" y2="33.8977651" transform="translate(42.918052, 33.897765) rotate(-70.000000) translate(-42.918052, -33.897765) "></line>
            <polyline transform="translate(6.066544, 135.146453) rotate(-70.000000) translate(-6.066544, -135.146453) " points="2.06654368 140.146453 10.0665437 135.146453 2.06654368 130.146453"></polyline>
            <polyline transform="translate(8.118665, 129.508297) rotate(-70.000000) translate(-8.118665, -129.508297) " points="4.11866454 134.508297 12.1186645 129.508297 4.11866454 124.508297"></polyline>
            <polyline transform="translate(10.170785, 123.870141) rotate(-70.000000) translate(-10.170785, -123.870141) " points="6.1707854 128.870141 14.1707854 123.870141 6.1707854 118.870141"></polyline>
            <polyline transform="translate(53.265323, 5.468871) rotate(-70.000000) translate(-53.265323, -5.468871) " points="49.2653235 10.4688712 57.2653235 5.4688712 49.2653235 0.4688712"></polyline>
            <line x1="-35.4122477" y1="61.8504284" x2="88.5877523" y2="61.8504284" transform="translate(26.587752, 61.850428) rotate(-110.000000) translate(-26.587752, -61.850428) "></line>
            <polyline transform="translate(53.265323, 135.146453) rotate(-110.000000) translate(-53.265323, -135.146453) " points="49.2653235 140.146453 57.2653235 135.146453 49.2653235 130.146453"></polyline>
            <polyline transform="translate(51.213203, 129.508297) rotate(-110.000000) translate(-51.213203, -129.508297) " points="47.2132026 134.508297 55.2132026 129.508297 47.2132026 124.508297"></polyline>
            <polyline transform="translate(49.161082, 123.870141) rotate(-110.000000) translate(-49.161082, -123.870141) " points="45.1610817 128.870141 53.1610817 123.870141 45.1610817 118.870141"></polyline>
            <polyline transform="translate(6.066544, 5.468871) rotate(-110.000000) translate(-6.066544, -5.468871) " points="2.06654368 10.4688712 10.0665437 5.4688712 2.06654368 0.4688712"></polyline>
        </g>
        <g id="name" transform="translate(70.100000, 67.957662)" fill-rule="nonzero">
            <polygon points="22.6 37.35 22.6 22.65 8.5 22.65 8.5 37.35 0 37.35 0 0.7 8.5 0.7 8.5 15.05 22.6 15.05 22.6 0.7 31.1 0.7 31.1 37.35"></polygon>
            <path d="M68.75,22.45 C68.75,27.55 67.3666667,31.4083333 64.6,34.025 C61.8333333,36.6416667 57.9833333,37.95 53.05,37.95 C48.0833333,37.95 44.2833333,36.65 41.65,34.05 C39.0166667,31.45 37.7,27.5833333 37.7,22.45 L37.7,0.7 L46.2,0.7 L46.2,21.85 C46.2,24.45 46.7666667,26.4916667 47.9,27.975 C49.0333333,29.4583333 50.8166667,30.2 53.25,30.2 C55.65,30.2 57.4166667,29.4583333 58.55,27.975 C59.6833333,26.4916667 60.25,24.45 60.25,21.85 L60.25,0.7 L68.75,0.7 L68.75,22.45 Z"></path>
            <polygon points="105.85 38.05 83.75 18.2 83.75 37.35 75.25 37.35 75.25 0.2 76.4 0 98.2 19.7 98.2 0.7 106.7 0.7 106.7 37.9"></polygon>
            <path d="M145.6,16.75 L145.6,34.25 C143.566667,35.4166667 141.441667,36.325 139.225,36.975 C137.008333,37.625 134.5,37.95 131.7,37.95 C129,37.95 126.483333,37.4916667 124.15,36.575 C121.816667,35.6583333 119.783333,34.3666667 118.05,32.7 C116.316667,31.0333333 114.95,29.0416667 113.95,26.725 C112.95,24.4083333 112.45,21.85 112.45,19.05 C112.45,16.25 112.958333,13.6833333 113.975,11.35 C114.991667,9.01666667 116.383333,7.01666667 118.15,5.35 C119.916667,3.68333333 122,2.39166667 124.4,1.475 C126.8,0.558333333 129.383333,0.1 132.15,0.1 C134.55,0.1 136.741667,0.383333333 138.725,0.95 C140.708333,1.51666667 142.616667,2.28333333 144.45,3.25 L140.9,10.1 C138.266667,8.73333333 135.533333,8.05 132.7,8.05 C130.866667,8.05 129.258333,8.31666667 127.875,8.85 C126.491667,9.38333333 125.325,10.1416667 124.375,11.125 C123.425,12.1083333 122.708333,13.275 122.225,14.625 C121.741667,15.975 121.5,17.45 121.5,19.05 C121.5,20.7833333 121.775,22.3583333 122.325,23.775 C122.875,25.1916667 123.633333,26.3833333 124.6,27.35 C125.566667,28.3166667 126.7,29.0666667 128,29.6 C129.3,30.1333333 130.7,30.4 132.2,30.4 C133.566667,30.4 134.641667,30.325 135.425,30.175 C136.208333,30.025 136.933333,29.7666667 137.6,29.4 L137.6,24 L130.25,24 L130.25,16.75 L145.6,16.75 Z"></path>
            <path d="M169.35,12.9 C169.35,11.3666667 168.8,10.175 167.7,9.325 C166.6,8.475 165.133333,8.05 163.3,8.05 C162.633333,8.05 162.066667,8.06666667 161.6,8.1 C161.133333,8.13333333 160.6,8.2 160,8.3 L160,18.4 C160.566667,18.4666667 161.033333,18.5083333 161.4,18.525 C161.766667,18.5416667 162.2,18.55 162.7,18.55 C164.733333,18.55 166.35,18.075 167.55,17.125 C168.75,16.175 169.35,14.7666667 169.35,12.9 Z M170.85,37.35 L164.6,25.4 C164.333333,25.4333333 164.091667,25.45 163.875,25.45 C163.658333,25.45 163.416667,25.45 163.15,25.45 C162.516667,25.45 161.983333,25.4416667 161.55,25.425 C161.116667,25.4083333 160.6,25.3833333 160,25.35 L160,37.35 L151.5,37.35 L151.5,1.05 C153.066667,0.883333333 154.716667,0.741666667 156.45,0.625 C158.183333,0.508333333 160.133333,0.45 162.3,0.45 C165.166667,0.45 167.6,0.766666667 169.6,1.4 C171.6,2.03333333 173.241667,2.9 174.525,4 C175.808333,5.1 176.741667,6.39166667 177.325,7.875 C177.908333,9.35833333 178.2,10.9333333 178.2,12.6 C178.2,14.8 177.65,16.825 176.55,18.675 C175.45,20.525 173.9,22.0333333 171.9,23.2 L180.5,37.35 L170.85,37.35 Z"></path>
            <polygon points="200.4 22.85 200.4 37.35 191.9 37.35 191.9 22.8 179 0.7 188.75 0.7 196.25 14.75 203.75 0.7 213.3 0.7"></polygon>
            <polygon points="256.65 8.5 256.65 16.6 269.25 16.6 269.25 24.05 256.65 24.05 256.65 37.35 248.15 37.35 248.15 0.7 271.35 0.7 271.35 8.5"></polygon>
            <path d="M302.95,19.05 C302.95,17.3833333 302.716667,15.8583333 302.25,14.475 C301.783333,13.0916667 301.125,11.9 300.275,10.9 C299.425,9.9 298.408333,9.11666667 297.225,8.55 C296.041667,7.98333333 294.716667,7.7 293.25,7.7 C291.816667,7.7 290.5,7.98333333 289.3,8.55 C288.1,9.11666667 287.075,9.9 286.225,10.9 C285.375,11.9 284.716667,13.0916667 284.25,14.475 C283.783333,15.8583333 283.55,17.3833333 283.55,19.05 C283.55,20.6833333 283.783333,22.1916667 284.25,23.575 C284.716667,24.9583333 285.375,26.1583333 286.225,27.175 C287.075,28.1916667 288.1,28.9833333 289.3,29.55 C290.5,30.1166667 291.816667,30.4 293.25,30.4 C294.716667,30.4 296.041667,30.1166667 297.225,29.55 C298.408333,28.9833333 299.425,28.1916667 300.275,27.175 C301.125,26.1583333 301.783333,24.9583333 302.25,23.575 C302.716667,22.1916667 302.95,20.6833333 302.95,19.05 Z M312.05,19.05 C312.05,21.75 311.591667,24.25 310.675,26.55 C309.758333,28.85 308.466667,30.8416667 306.8,32.525 C305.133333,34.2083333 303.141667,35.5333333 300.825,36.5 C298.508333,37.4666667 295.933333,37.95 293.1,37.95 C290.266667,37.95 287.7,37.4666667 285.4,36.5 C283.1,35.5333333 281.141667,34.2083333 279.525,32.525 C277.908333,30.8416667 276.666667,28.85 275.8,26.55 C274.933333,24.25 274.5,21.75 274.5,19.05 C274.5,16.35 274.958333,13.8416667 275.875,11.525 C276.791667,9.20833333 278.075,7.20833333 279.725,5.525 C281.375,3.84166667 283.366667,2.51666667 285.7,1.55 C288.033333,0.583333333 290.616667,0.1 293.45,0.1 C296.283333,0.1 298.841667,0.583333333 301.125,1.55 C303.408333,2.51666667 305.358333,3.84166667 306.975,5.525 C308.591667,7.20833333 309.841667,9.20833333 310.725,11.525 C311.608333,13.8416667 312.05,16.35 312.05,19.05 Z"></path>
            <path d="M345,19.05 C345,17.3833333 344.766667,15.8583333 344.3,14.475 C343.833333,13.0916667 343.175,11.9 342.325,10.9 C341.475,9.9 340.458333,9.11666667 339.275,8.55 C338.091667,7.98333333 336.766667,7.7 335.3,7.7 C333.866667,7.7 332.55,7.98333333 331.35,8.55 C330.15,9.11666667 329.125,9.9 328.275,10.9 C327.425,11.9 326.766667,13.0916667 326.3,14.475 C325.833333,15.8583333 325.6,17.3833333 325.6,19.05 C325.6,20.6833333 325.833333,22.1916667 326.3,23.575 C326.766667,24.9583333 327.425,26.1583333 328.275,27.175 C329.125,28.1916667 330.15,28.9833333 331.35,29.55 C332.55,30.1166667 333.866667,30.4 335.3,30.4 C336.766667,30.4 338.091667,30.1166667 339.275,29.55 C340.458333,28.9833333 341.475,28.1916667 342.325,27.175 C343.175,26.1583333 343.833333,24.9583333 344.3,23.575 C344.766667,22.1916667 345,20.6833333 345,19.05 Z M354.1,19.05 C354.1,21.75 353.641667,24.25 352.725,26.55 C351.808333,28.85 350.516667,30.8416667 348.85,32.525 C347.183333,34.2083333 345.191667,35.5333333 342.875,36.5 C340.558333,37.4666667 337.983333,37.95 335.15,37.95 C332.316667,37.95 329.75,37.4666667 327.45,36.5 C325.15,35.5333333 323.191667,34.2083333 321.575,32.525 C319.958333,30.8416667 318.716667,28.85 317.85,26.55 C316.983333,24.25 316.55,21.75 316.55,19.05 C316.55,16.35 317.008333,13.8416667 317.925,11.525 C318.841667,9.20833333 320.125,7.20833333 321.775,5.525 C323.425,3.84166667 325.416667,2.51666667 327.75,1.55 C330.083333,0.583333333 332.666667,0.1 335.5,0.1 C338.333333,0.1 340.891667,0.583333333 343.175,1.55 C345.458333,2.51666667 347.408333,3.84166667 349.025,5.525 C350.641667,7.20833333 351.891667,9.20833333 352.775,11.525 C353.658333,13.8416667 354.1,16.35 354.1,19.05 Z"></path>
            <polygon points="359.85 37.35 359.85 0.7 368.35 0.7 368.35 29.6 383.05 29.6 383.05 37.35"></polygon>
            <polygon points="387.2 37.35 387.2 0.7 395.7 0.7 395.7 37.35"></polygon>
            <path d="M425.6,26.55 C425.6,28.0166667 425.333333,29.4333333 424.8,30.8 C424.266667,32.1666667 423.458333,33.3833333 422.375,34.45 C421.291667,35.5166667 419.933333,36.3666667 418.3,37 C416.666667,37.6333333 414.75,37.95 412.55,37.95 C411.516667,37.95 410.441667,37.85 409.325,37.65 C408.208333,37.45 407.108333,37.1833333 406.025,36.85 C404.941667,36.5166667 403.9,36.125 402.9,35.675 C401.9,35.225 401,34.7333333 400.2,34.2 L402.55,26.5 C404.05,27.5666667 405.7,28.425 407.5,29.075 C409.3,29.725 411.066667,30.05 412.8,30.05 C414.3,30.05 415.366667,29.7416667 416,29.125 C416.633333,28.5083333 416.95,27.75 416.95,26.85 C416.95,26.3833333 416.875,25.9416667 416.725,25.525 C416.575,25.1083333 416.258333,24.6833333 415.775,24.25 C415.291667,23.8166667 414.625,23.375 413.775,22.925 C412.925,22.475 411.8,21.9666667 410.4,21.4 C408.8,20.7333333 407.441667,20.0083333 406.325,19.225 C405.208333,18.4416667 404.308333,17.6 403.625,16.7 C402.941667,15.8 402.45,14.8416667 402.15,13.825 C401.85,12.8083333 401.7,11.75 401.7,10.65 C401.7,9.31666667 401.975,8.01666667 402.525,6.75 C403.075,5.48333333 403.883333,4.35833333 404.95,3.375 C406.016667,2.39166667 407.358333,1.6 408.975,1 C410.591667,0.4 412.466667,0.1 414.6,0.1 C415.6,0.1 416.591667,0.183333333 417.575,0.35 C418.558333,0.516666667 419.5,0.733333333 420.4,1 C421.3,1.26666667 422.133333,1.56666667 422.9,1.9 C423.666667,2.23333333 424.316667,2.58333333 424.85,2.95 L422.7,10.55 C422.166667,10.1833333 421.566667,9.825 420.9,9.475 C420.233333,9.125 419.541667,8.80833333 418.825,8.525 C418.108333,8.24166667 417.391667,8.00833333 416.675,7.825 C415.958333,7.64166667 415.266667,7.55 414.6,7.55 C413.033333,7.55 411.916667,7.85 411.25,8.45 C410.583333,9.05 410.25,9.73333333 410.25,10.5 C410.25,11.1 410.366667,11.6166667 410.6,12.05 C410.833333,12.4833333 411.216667,12.8833333 411.75,13.25 C412.283333,13.6166667 412.958333,13.9833333 413.775,14.35 C414.591667,14.7166667 415.566667,15.15 416.7,15.65 C418.4,16.3833333 419.825,17.1416667 420.975,17.925 C422.125,18.7083333 423.041667,19.5416667 423.725,20.425 C424.408333,21.3083333 424.891667,22.2583333 425.175,23.275 C425.458333,24.2916667 425.6,25.3833333 425.6,26.55 Z"></path>
            <polygon points="453.15 37.35 453.15 22.65 439.05 22.65 439.05 37.35 430.55 37.35 430.55 0.7 439.05 0.7 439.05 15.05 453.15 15.05 453.15 0.7 461.65 0.7 461.65 37.35"></polygon>
        </g>
    </g>
</svg>