<?xml version="1.0" encoding="UTF-8"?>
<svg width="400px" height="244px" viewBox="0 0 400 244" version="1.1" xmlns="http://www.w3.org/2000/svg" xmlns:xlink="http://www.w3.org/1999/xlink">
    <title>Group 2</title>
    <g id="Page-2" stroke="none" stroke-width="1" fill="none" fill-rule="evenodd">
        <g id="Desktop-HD" transform="translate(-370.000000, -560.000000)">
            <g id="Group-2" transform="translate(370.000000, 560.000000)">
                <rect id="Rectangle" fill="#262626" x="0" y="0" width="400" height="244" rx="6"></rect>
                <g id="Hungry-Foolish-Work" transform="translate(28.350000, 33.500000)" fill="#F7F5F2" fill-rule="nonzero">
                    <path d="M3.9,35.5 L14.8,35.5 C15.55,35.5 16,35.15 16,34.55 L16,34.35 C16,32.95 13.8,32.35 13.8,30.05 L13.85,19.55 L26.95,19.55 L27,30.05 C27,32.35 25.05,32.95 25.05,34.35 L25.05,34.55 C25.05,35.15 25.45,35.5 26.2,35.5 L37.1,35.5 C37.8,35.5 38.3,35.15 38.3,34.55 L38.3,34.35 C38.3,32.95 36.05,32.35 36.05,30.05 L36.05,5.45 C36.05,3.15 38.3,2.55 38.3,1.15 L38.3,0.95 C38.3,0.35 37.8,0 37.1,0 L26.2,0 C25.45,0 25.05,0.35 25.05,0.95 L25.05,1.15 C25.05,2.55 27,3.15 27,5.45 L26.95,15.65 L13.8,15.65 L13.85,5.45 C13.85,3.15 16,2.55 16,1.15 L16,0.95 C16,0.35 15.55,0 14.8,0 L3.9,0 C3.2,0 2.7,0.35 2.7,0.95 L2.7,1.15 C2.7,2.55 4.7,3.15 4.7,5.45 L4.7,30.05 C4.7,32.35 2.7,32.95 2.7,34.35 L2.7,34.55 C2.7,35.15 3.2,35.5 3.9,35.5 Z" id="Path"></path>
                    <path d="M66.5,30 L66.5,12.25 C66.5,11.35 65.75,11.05 64.3,11.25 L56.85,12.25 C56.15,12.35 55.7,12.85 55.7,13.4 L55.7,13.6 C55.7,14.85 57.7,15.45 57.7,17.8 L57.7,27.7 C57.7,30.75 56.25,32.7 54.4,32.7 C52.2,32.7 51.15,31.15 51.2,27.05 L51.35,12.25 C51.35,11.35 50.45,11.05 49,11.25 L41.55,12.25 C40.85,12.35 40.4,12.85 40.4,13.4 L40.4,13.6 C40.4,14.85 42.4,15.45 42.4,17.8 L42.4,26.15 C42.4,32.55 46.7,36 51.75,36 C55.15,36 57.5,34.9 58.8,32.9 C59.05,35.05 60.4,35.8 63.5,35.8 C66.7,35.8 68.65,35.5 68.65,34.15 C68.65,32.1 66.5,34.05 66.5,30 Z" id="Path"></path>
                    <path d="M97.9,30.05 L97.25,21.4 C96.65,13.45 92.05,11 87.7,11 C84.4,11 81.9,12.35 80.55,14.75 L80.55,12.4 C80.55,11.4 79.9,10.55 78.65,11.2 L71.65,14.65 C70.95,15 70.45,15.3 70.45,15.9 L70.45,16.05 C70.45,17.5 73.1,17.8 73.1,20.2 L73.1,30.05 C73.1,32.35 70.9,32.95 70.9,34.4 L70.9,34.6 C70.9,35.2 71.35,35.55 72.1,35.55 L82.9,35.55 C83.65,35.55 84.1,35.2 84.1,34.6 L84.1,34.4 C84.1,32.95 81.9,32.35 81.9,30.05 L81.9,19.15 C81.9,16.25 82.95,14.3 85.15,14.3 C87.4,14.3 88.35,16.15 88.6,21.1 L89.1,30.05 C89.25,32.35 87.3,32.95 87.3,34.4 L87.3,34.6 C87.3,35.2 87.75,35.55 88.5,35.55 L98.5,35.55 C99.2,35.55 99.7,35.2 99.7,34.6 L99.7,34.4 C99.7,32.95 98.05,32.35 97.9,30.05 Z" id="Path"></path>
                    <path d="M123.5,11.5 C119,11.5 116.85,11 113.7,11 C106.5,11 101.45,15.3 101.45,21.65 C101.45,27.6 106.6,31.7 113.6,31.7 C114.2,31.7 114.85,31.65 115.4,31.6 C116.8,32 117.5,33.5 117.5,35.65 C117.5,38.15 116,39.9 113.35,39.85 C108.75,39.8 109.5,32.4 104.95,32.4 C102.6,32.4 101.5,34.15 101.5,35.7 C101.5,39.95 106.15,42.25 113.3,42.25 C120.6,42.25 126.35,39.55 126.35,35.55 C126.35,33.05 124.95,31.15 120.45,30.2 C123.8,28.5 125.85,25.45 125.85,21.6 C125.85,19.25 124.85,17.05 123.4,15.4 C125,14.9 126.95,15.1 127.15,13.15 C127.3,12 126.75,11.5 123.5,11.5 Z M109.8,17.65 C109.8,15 110.8,13.45 112.4,13.45 C115.4,13.45 117.55,20.85 117.55,25 C117.55,27.6 116.55,29.2 114.85,29.2 C112.15,29.2 109.8,22.65 109.8,17.65 Z" id="Shape"></path>
                    <path d="M146.05,11 C142.6,11 140.25,12.75 139.15,15.95 L139.15,12.3 C139.15,11.3 138.65,10.6 137.35,11.2 L130.3,14.5 C129.55,14.9 129.15,15.35 129.15,15.95 L129.15,16.1 C129.15,17.55 131.55,17.75 131.55,20.1 L131.55,30.05 C131.55,32.35 129.55,32.95 129.55,34.35 L129.55,34.55 C129.55,35.15 130.05,35.5 130.75,35.5 L141.5,35.5 C142.2,35.5 142.7,35.15 142.7,34.55 L142.7,34.35 C142.7,32.95 140.05,32.35 140.05,30.05 L140.05,20.75 C140.05,18.55 140.3,15.95 141.9,15.95 C144.4,15.95 142.35,20.65 146.9,20.65 C149.8,20.65 150.75,18.45 150.75,15.95 C150.75,13.15 149,11 146.05,11 Z" id="Path"></path>
                    <path d="M178.55,11.5 L171.85,11.5 C171.2,11.5 170.7,11.9 170.7,12.5 L170.7,12.7 C170.7,14.1 174.45,14.6 173.05,18 L168.45,29.15 L163.35,17.15 C162.15,14.35 164.05,14.1 164.05,12.7 L164.05,12.5 C164.05,11.9 163.6,11.5 162.95,11.5 L152.2,11.5 C151.5,11.5 151.05,11.85 151.05,12.45 L151.05,12.65 C151.05,14.1 152.65,14.7 153.85,17.05 L164,37.1 C162.7,40.2 160.85,43.6 159.3,43.6 C156.95,43.6 158.5,36.95 153.7,36.95 C151.45,36.95 150.15,38.35 150.15,40.45 C150.15,43.35 153.2,46.25 158.1,46.25 C163.35,46.25 166.15,40.5 167.55,37.4 L177,17.05 C178,14.8 179.7,14.1 179.7,12.65 L179.7,12.45 C179.7,11.85 179.25,11.5 178.55,11.5 Z" id="Path"></path>
                    <path d="M3.9,90.5 L14.9,90.5 C15.6,90.5 16.1,90.15 16.1,89.55 L16.1,89.35 C16.1,87.95 13.85,87.35 13.85,85.05 L13.85,75.6 L19.45,75.6 C21.75,75.6 22.45,79.35 23.9,79.35 L24.35,79.35 C24.95,79.35 25.3,78.9 25.3,78.2 L25.3,69.2 C25.3,68.5 24.95,68.05 24.35,68.05 L23.9,68.05 C22.45,68.05 21.75,72.1 19.45,72.1 L13.85,72.1 L13.85,60.9 C13.85,59.1 14.95,58.5 16.15,58.5 L20.95,58.5 C24.5,58.5 25.95,64.35 28.75,64.35 L29,64.35 C29.85,64.35 30.4,63.8 30.25,62.9 L29.05,56.6 C28.85,55.5 28.45,55 27.35,55 L3.85,55 C3.15,55 2.7,55.35 2.7,55.95 L2.7,56.15 C2.7,57.55 4.7,58.15 4.7,60.45 L4.7,85.05 C4.7,87.35 2.7,87.95 2.7,89.35 L2.7,89.55 C2.7,90.15 3.2,90.5 3.9,90.5 Z" id="Path"></path>
                    <path d="M43,91 C50.3,91 56.35,85.85 56.35,78.55 C56.35,71.2 50.15,66 42.65,66 C35.5,66 29.15,71.05 29.15,78.45 C29.15,85.7 35.35,91 43,91 Z M44.05,88.55 C40,88.55 38,78.75 38,74.7 C38,70.65 38.85,68.45 41.25,68.45 C45.2,68.45 47.25,78.5 47.25,82.4 C47.25,86.15 46.4,88.55 44.05,88.55 Z" id="Shape"></path>
                    <path d="M72.35,91 C79.65,91 85.7,85.85 85.7,78.55 C85.7,71.2 79.5,66 72,66 C64.85,66 58.5,71.05 58.5,78.45 C58.5,85.7 64.7,91 72.35,91 Z M73.4,88.55 C69.35,88.55 67.35,78.75 67.35,74.7 C67.35,70.65 68.2,68.45 70.6,68.45 C74.55,68.45 76.6,78.5 76.6,82.4 C76.6,86.15 75.75,88.55 73.4,88.55 Z" id="Shape"></path>
                    <path d="M89,90.5 L99.8,90.5 C100.5,90.5 101,90.15 101,89.55 L101,89.35 C101,87.9 98.8,87.35 98.8,85.05 L98.8,53.95 C98.8,53.05 97.9,52.2 96.5,52.9 L88.95,56.6 C88.3,56.95 87.85,57.2 87.85,57.75 L87.85,57.95 C87.85,59.2 89.8,59.85 89.8,62.2 L89.8,85.05 C89.8,87.35 87.85,87.9 87.85,89.35 L87.85,89.55 C87.85,90.15 88.3,90.5 89,90.5 Z" id="Path"></path>
                    <path d="M109.9,63.55 C113.3,63.55 115.6,61.35 115.6,58.55 C115.6,55.7 113.3,53.55 109.9,53.55 C106.45,53.55 104.15,55.7 104.15,58.55 C104.15,61.35 106.45,63.55 109.9,63.55 Z M104.55,90.5 L115.3,90.5 C116.05,90.5 116.55,90.15 116.55,89.55 L116.55,89.35 C116.55,87.9 114.3,87.3 114.3,85 L114.3,67.3 C114.3,66.35 113.45,65.55 112.05,66.25 L104.5,69.95 C103.8,70.3 103.35,70.55 103.35,71.1 L103.35,71.3 C103.35,72.5 105.35,73.2 105.35,75.5 L105.35,85 C105.35,87.3 103.35,87.9 103.35,89.35 L103.35,89.55 C103.35,90.15 103.8,90.5 104.55,90.5 Z" id="Shape"></path>
                    <path d="M129.6,90.95 C136.55,90.95 140.5,87.75 140.5,83.6 C140.5,74.4 127.7,78 127.7,71.15 C127.7,69.7 128.5,68.3 130.05,68.3 C133.5,68.3 131.9,75.05 136.75,75.05 C138.6,75.05 140.1,73.75 140.1,72 C140.1,68.75 135.95,66 129.6,66 C123.35,66 119.05,69.15 119.05,73.6 C119.05,83.3 132.3,79.45 132.3,86 C132.3,88 131.1,88.75 129.6,88.75 C125.45,88.75 127.15,81.9 122.15,81.9 C120.15,81.9 118.6,82.85 118.6,85.1 C118.6,88.6 123.3,90.95 129.6,90.95 Z" id="Path"></path>
                    <path d="M169.55,85 L168.9,76 C168.35,68.45 163.75,66 159.4,66 C156.85,66 154.75,66.85 153.3,68.35 L153.3,53.85 C153.3,52.7 152.55,52.3 151.4,52.8 L143.5,56.3 C142.8,56.6 142.35,57.1 142.35,57.7 L142.35,57.85 C142.35,59.25 144.8,59.5 144.8,61.85 L144.8,85.05 C144.8,87.35 142.6,87.9 142.6,89.35 L142.6,89.55 C142.6,90.15 143.05,90.5 143.75,90.5 L154.6,90.5 C155.3,90.5 155.8,90.15 155.8,89.55 L155.8,89.35 C155.8,87.9 153.55,87.35 153.55,85.05 L153.55,74.15 C153.55,71.25 154.6,69.3 156.8,69.3 C159.1,69.3 160.05,71.15 160.3,75.7 L160.8,85 C160.9,87.3 159,87.9 159,89.35 L159,89.55 C159,90.15 159.45,90.5 160.2,90.5 L170.15,90.5 C170.9,90.5 171.35,90.15 171.35,89.55 L171.35,89.35 C171.35,87.9 169.75,87.3 169.55,85 Z" id="Path"></path>
                    <path d="M50.5,110 L42.95,110 C42.2,110 41.75,110.35 41.75,110.95 L41.75,111.15 C41.75,112.55 44.55,113.15 43.8,115.45 L37.85,134.25 L32.45,115.45 C31.7,112.8 34.7,112.55 34.7,111.1 L34.7,110.95 C34.7,110.35 34.2,110 33.5,110 L21.4,110 C20.7,110 20.25,110.35 20.25,110.95 L20.25,111.1 C20.25,112.55 22.85,113.3 23.5,115.45 L24.7,119.2 L19.75,134.4 L12.8,115.5 C11.95,113.15 14.65,112.55 14.65,111.15 L14.65,110.95 C14.65,110.35 14.2,110 13.5,110 L1.2,110 C0.45,110 0,110.35 0,110.95 L0,111.1 C0,112.55 2.1,112.85 3.25,115.5 L14.95,143.2 C15.6,144.75 16.35,145.5 18.2,145.5 C19.6,145.5 20.65,144.7 21.2,143 L26.9,125.85 L32.55,143.2 C33.05,144.75 34.25,145.5 35.85,145.5 C37.4,145.5 38.6,144.75 39.2,143 L48.65,115.45 C49.55,112.75 51.65,112.55 51.65,111.15 L51.65,110.95 C51.65,110.35 51.2,110 50.5,110 Z" id="Path"></path>
                    <path d="M62.8,146 C70.1,146 76.15,140.85 76.15,133.55 C76.15,126.2 69.95,121 62.45,121 C55.3,121 48.95,126.05 48.95,133.45 C48.95,140.7 55.15,146 62.8,146 Z M63.85,143.55 C59.8,143.55 57.8,133.75 57.8,129.7 C57.8,125.65 58.65,123.45 61.05,123.45 C65,123.45 67.05,133.5 67.05,137.4 C67.05,141.15 66.2,143.55 63.85,143.55 Z" id="Shape"></path>
                    <path d="M95.25,121 C91.8,121 89.45,122.75 88.35,125.95 L88.35,122.3 C88.35,121.3 87.85,120.6 86.55,121.2 L79.5,124.5 C78.75,124.9 78.35,125.35 78.35,125.95 L78.35,126.1 C78.35,127.55 80.75,127.75 80.75,130.1 L80.75,140.05 C80.75,142.35 78.75,142.95 78.75,144.35 L78.75,144.55 C78.75,145.15 79.25,145.5 79.95,145.5 L90.7,145.5 C91.4,145.5 91.9,145.15 91.9,144.55 L91.9,144.35 C91.9,142.95 89.25,142.35 89.25,140.05 L89.25,130.75 C89.25,128.55 89.5,125.95 91.1,125.95 C93.6,125.95 91.55,130.65 96.1,130.65 C99,130.65 99.95,128.45 99.95,125.95 C99.95,123.15 98.2,121 95.25,121 Z" id="Path"></path>
                    <path d="M127.75,141.3 L119.7,129.8 L122.9,126.85 C124.9,125 127.6,124.05 127.6,122.65 L127.6,122.45 C127.6,121.85 127.15,121.5 126.45,121.5 L118.55,121.5 C117.85,121.5 117.4,121.9 117.4,122.5 L117.4,122.7 C117.4,124.05 120.2,125.6 118.65,126.9 L111.9,132.7 L111.9,108.95 C111.9,108.05 111.05,107.25 109.65,107.9 L101.65,111.6 C101,111.95 100.55,112.2 100.55,112.75 L100.55,112.95 C100.55,114.2 102.95,114.85 102.95,117.2 L102.95,140.05 C102.95,142.35 100.95,142.9 100.95,144.35 L100.95,144.55 C100.95,145.15 101.45,145.5 102.15,145.5 L112.95,145.5 C113.65,145.5 114.15,145.15 114.15,144.55 L114.15,144.35 C114.15,142.9 111.9,142.35 111.9,140.05 L111.9,137.05 L114.4,134.75 L118.8,141.3 C119.6,142.55 117.75,142.95 117.75,144.35 L117.75,144.5 C117.75,145.1 118.2,145.5 118.9,145.5 L129.4,145.5 C130.1,145.5 130.55,145.15 130.55,144.55 L130.55,144.35 C130.55,142.95 128.5,142.4 127.75,141.3 Z" id="Path"></path>
                </g>
            </g>
        </g>
    </g>
</svg>