<?xml version="1.0" encoding="UTF-8"?>
<svg width="768px" height="81px" viewBox="0 0 768 81" version="1.1" xmlns="http://www.w3.org/2000/svg" xmlns:xlink="http://www.w3.org/1999/xlink">
    <title>Group 2 Copy</title>
    <g id="Page-2" stroke="none" stroke-width="1" fill="none" fill-rule="evenodd">
        <g id="Group-2-Copy" fill="#262626">
            <path d="M762,0 C765.313708,-6.15269919e-14 768,2.6862915 768,6 L768,75 C768,78.3137085 765.313708,81 762,81 L6,81 C2.6862915,81 1.29399067e-15,78.3137085 0,75 L0,6 C4.82366169e-16,2.6862915 2.6862915,1.4968968e-15 6,0 L762,0 Z M126.38,35.6 L119.93,35.6 L119.819264,35.6051615 C119.46314,35.6394215 119.24,35.8427273 119.24,36.17 L119.24,36.17 L119.24,36.29 L119.247803,36.4233576 C119.340388,37.2008033 120.237895,37.5942105 120.92,38.93 L120.92,38.93 L127.01,50.96 L126.922001,51.1672946 C126.148025,52.9683128 125.085556,54.86 124.19,54.86 C122.78,54.86 123.71,50.87 120.83,50.87 C119.48,50.87 118.7,51.71 118.7,52.97 C118.7,54.71 120.53,56.45 123.47,56.45 C126.62,56.45 128.3,53 129.14,51.14 L129.14,51.14 L134.81,38.93 L134.913642,38.7133745 C135.520185,37.5319444 136.43,37.1116667 136.43,36.29 L136.43,36.29 L136.43,36.17 L136.423396,36.0755823 C136.379669,35.7735537 136.121818,35.6 135.74,35.6 L135.74,35.6 L131.72,35.6 L131.616026,35.6058603 C131.277934,35.6446281 131.03,35.8727273 131.03,36.2 L131.03,36.2 L131.03,36.32 L131.037302,36.4022844 C131.176567,37.1819333 133.252,37.528 132.44,39.5 L132.44,39.5 L129.68,46.19 L126.62,38.99 L126.542336,38.7956019 C125.989376,37.296896 127.04,37.1264 127.04,36.32 L127.04,36.32 L127.04,36.2 L127.033418,36.1048835 C126.989917,35.7983471 126.734545,35.6 126.38,35.6 L126.38,35.6 Z M96.83,35.3 C92.51,35.3 89.48,37.88 89.48,41.69 C89.48,45.26 92.57,47.72 96.77,47.72 C97.13,47.72 97.52,47.69 97.85,47.66 C98.69,47.9 99.11,48.8 99.11,50.09 C99.11,51.59 98.21,52.64 96.62,52.61 C93.86,52.58 94.31,48.14 91.58,48.14 C90.17,48.14 89.51,49.19 89.51,50.12 C89.51,52.67 92.3,54.05 96.59,54.05 C100.97,54.05 104.42,52.43 104.42,50.03 C104.42,48.53 103.58,47.39 100.88,46.82 C102.89,45.8 104.12,43.97 104.12,41.66 C104.12,40.25 103.52,38.93 102.65,37.94 C103.61,37.64 104.78,37.76 104.9,36.59 C104.99,35.9 104.66,35.6 102.71,35.6 C100.01,35.6 98.72,35.3 96.83,35.3 Z M166.64,35.3 C162.35,35.3 158.54,38.33 158.54,42.77 C158.54,47.12 162.26,50.3 166.85,50.3 C171.23,50.3 174.86,47.21 174.86,42.83 C174.86,38.42 171.14,35.3 166.64,35.3 Z M184.25,35.3 C179.96,35.3 176.15,38.33 176.15,42.77 C176.15,47.12 179.87,50.3 184.46,50.3 C188.84,50.3 192.47,47.21 192.47,42.83 C192.47,38.42 188.75,35.3 184.25,35.3 Z M286.37,35.3 C282.08,35.3 278.27,38.33 278.27,42.77 C278.27,47.12 281.99,50.3 286.58,50.3 C290.96,50.3 294.59,47.21 294.59,42.83 C294.59,38.42 290.87,35.3 286.37,35.3 Z M68.5047339,35.9529541 C68.4521094,35.4886719 68.005625,35.3375 67.19,35.45 L67.19,35.45 L62.72,36.05 L62.59862,36.07499 C62.2487,36.1703 62.03,36.443 62.03,36.74 L62.03,36.74 L62.03,36.86 L62.0419682,36.9885976 C62.1670242,37.6559862 63.23,38.0529412 63.23,39.38 L63.23,39.38 L63.23,45.32 L63.2258643,45.5363994 C63.160016,47.241728 62.3156,48.32 61.25,48.32 C59.93,48.32 59.3,47.39 59.33,44.93 L59.33,44.93 L59.42,36.05 L59.4137231,35.9529541 C59.3512109,35.4886719 58.825625,35.3375 58.01,35.45 L58.01,35.45 L53.54,36.05 L53.41862,36.07499 C53.0687,36.1703 52.85,36.443 52.85,36.74 L52.85,36.74 L52.85,36.86 L52.8619682,36.9885976 C52.9870242,37.6559862 54.05,38.0529412 54.05,39.38 L54.05,39.38 L54.05,44.39 L54.0541593,44.6550314 C54.1702434,48.3251595 56.7004651,50.3 59.66,50.3 C61.7,50.3 63.11,49.64 63.89,48.44 C64.04,49.73 64.85,50.18 66.71,50.18 C68.63,50.18 69.8,50 69.8,49.19 C69.8,47.96 68.51,49.13 68.51,46.7 L68.51,46.7 L68.51,36.05 Z M218.81,35.3 C215.06,35.3 212.48,37.19 212.48,39.86 C212.48,45.68 220.43,43.37 220.43,47.3 C220.43,48.5 219.71,48.95 218.81,48.95 C216.32,48.95 217.34,44.84 214.34,44.84 C213.14,44.84 212.21,45.41 212.21,46.76 C212.21,48.86 215.03,50.27 218.81,50.27 C222.98,50.27 225.35,48.35 225.35,45.86 C225.35,43.1501818 223.499183,42.2911802 221.614716,41.6326398 L221.614716,41.6326398 L221.19613,41.4889265 C219.386258,40.8746545 217.67,40.3329091 217.67,38.39 C217.67,37.52 218.15,36.68 219.08,36.68 C221.15,36.68 220.19,40.73 223.1,40.73 C224.21,40.73 225.11,39.95 225.11,38.9 C225.11,36.95 222.62,35.3 218.81,35.3 Z M76.936394,36.0409722 C76.8955556,35.4861111 76.5083333,35.0516667 75.8,35.42 L75.8,35.42 L71.6,37.49 L71.47778,37.55231 C71.123,37.7378 70.88,37.916 70.88,38.24 L70.88,38.24 L70.88,38.33 L70.8927497,38.4619186 C71.042964,39.2224377 72.47,39.4557895 72.47,40.82 L72.47,40.82 L72.47,46.73 L72.4568349,46.9632526 C72.3192734,48.1541176 71.15,48.5211765 71.15,49.34 L71.15,49.34 L71.15,49.46 L71.1566266,49.5544177 C71.2005785,49.8564463 71.4609091,50.03 71.87,50.03 L71.87,50.03 L78.35,50.03 L78.4681968,50.0248385 C78.8468595,49.9905785 79.07,49.7872727 79.07,49.46 L79.07,49.46 L79.07,49.34 L79.0568349,49.1914533 C78.9192734,48.4241176 77.75,48.0288235 77.75,46.73 L77.75,46.73 L77.75,40.19 L77.7530278,39.9839744 C77.801504,38.358272 78.4328,37.28 79.7,37.28 C81.05,37.28 81.62,38.39 81.77,41.36 L81.77,41.36 L82.07,46.73 L82.0732974,46.9632526 C82.0264014,48.1541176 80.99,48.5211765 80.99,49.34 L80.99,49.34 L80.99,49.46 L80.9966266,49.5544177 C81.0405785,49.8564463 81.3009091,50.03 81.71,50.03 L81.71,50.03 L87.71,50.03 L87.821435,50.0248385 C88.1820661,49.9905785 88.43,49.7872727 88.43,49.46 L88.43,49.46 L88.43,49.34 L88.4188599,49.182478 C88.3097656,48.4210156 87.434375,48.02375 87.35,46.73 L87.35,46.73 L86.96,41.54 L86.9337864,41.239996 C86.4826211,36.7081123 83.7844681,35.3 81.23,35.3 C79.25,35.3 77.75,36.11 76.94,37.55 L76.94,37.55 L76.94,36.14 Z M112.097191,35.9817695 C112.065185,35.4357407 111.756667,35.08 111.02,35.42 L111.02,35.42 L106.79,37.4 L106.647819,37.4811934 C106.28963,37.7011111 106.1,37.95 106.1,38.27 L106.1,38.27 L106.1,38.36 L106.111547,38.4914332 C106.24759,39.246205 107.54,39.4242105 107.54,40.76 L107.54,40.76 L107.54,46.73 L107.528032,46.9632465 C107.402976,48.1540138 106.34,48.5194118 106.34,49.31 L106.34,49.31 L106.34,49.43 L106.347303,49.5244177 C106.395537,49.8264463 106.678182,50 107.06,50 L107.06,50 L113.51,50 L113.621435,49.9948385 C113.982066,49.9605785 114.23,49.7572727 114.23,49.43 L114.23,49.43 L114.23,49.31 L114.215823,49.1741872 C114.058241,48.4268519 112.64,48.0333333 112.64,46.73 L112.64,46.73 L112.640829,40.9838802 C112.653906,39.7027083 112.83,38.27 113.75,38.27 C115.25,38.27 114.02,41.09 116.75,41.09 C118.49,41.09 119.06,39.77 119.06,38.27 C119.06,36.59 118.01,35.3 116.24,35.3 C114.17,35.3 112.76,36.35 112.1,38.27 L112.1,38.27 L112.1,36.08 Z M301.907191,35.9817695 C301.875185,35.4357407 301.566667,35.08 300.83,35.42 L300.83,35.42 L296.6,37.4 L296.457819,37.4811934 C296.09963,37.7011111 295.91,37.95 295.91,38.27 L295.91,38.27 L295.91,38.36 L295.921547,38.4914332 C296.05759,39.246205 297.35,39.4242105 297.35,40.76 L297.35,40.76 L297.35,46.73 L297.338032,46.9632465 C297.212976,48.1540138 296.15,48.5194118 296.15,49.31 L296.15,49.31 L296.15,49.43 L296.157303,49.5244177 C296.205537,49.8264463 296.488182,50 296.87,50 L296.87,50 L303.32,50 L303.431435,49.9948385 C303.792066,49.9605785 304.04,49.7572727 304.04,49.43 L304.04,49.43 L304.04,49.31 L304.025823,49.1741872 C303.868241,48.4268519 302.45,48.0333333 302.45,46.73 L302.45,46.73 L302.45,41.15 C302.45,39.83 302.6,38.27 303.56,38.27 C305.06,38.27 303.83,41.09 306.56,41.09 C308.3,41.09 308.87,39.77 308.87,38.27 C308.87,36.59 307.82,35.3 306.05,35.3 C303.98,35.3 302.57,36.35 301.91,38.27 L301.91,38.27 L301.91,36.08 Z M233.025371,27.8929249 C232.976228,27.2936332 232.539412,27.0976471 231.89,27.38 L231.89,27.38 L227.15,29.48 L227.02862,29.53754 C226.6787,29.7206 226.46,29.996 226.46,30.32 L226.46,30.32 L226.46,30.41 L226.471787,30.5371818 C226.610665,31.2692798 227.93,31.4742105 227.93,32.81 L227.93,32.81 L227.93,46.73 L227.916835,46.9629534 C227.779273,48.150692 226.61,48.4911765 226.61,49.31 L226.61,49.31 L226.61,49.43 L226.616604,49.5244177 C226.660331,49.8264463 226.918182,50 227.3,50 L227.3,50 L233.81,50 L233.921435,49.9948385 C234.282066,49.9605785 234.53,49.7572727 234.53,49.43 L234.53,49.43 L234.53,49.31 L234.516536,49.1617525 C234.375848,48.3975433 233.18,48.0288235 233.18,46.73 L233.18,46.73 L233.18,40.19 L233.183028,39.9839744 C233.231504,38.358272 233.8628,37.28 235.13,37.28 C236.51,37.28 237.08,38.39 237.23,41.12 L237.23,41.12 L237.53,46.7 L237.528608,46.9332526 C237.459827,48.1241176 236.45,48.4911765 236.45,49.31 L236.45,49.31 L236.45,49.43 L236.456627,49.5244177 C236.500579,49.8264463 236.760909,50 237.17,50 L237.17,50 L243.14,50 L243.258197,49.9948385 C243.63686,49.9605785 243.86,49.7572727 243.86,49.43 L243.86,49.43 L243.86,49.31 L243.849189,49.152478 C243.743281,48.3910156 242.8925,47.99375 242.78,46.7 L242.78,46.7 L242.39,41.3 L242.364428,41.0025159 C241.937407,36.7053926 239.242,35.3 236.69,35.3 C235.16,35.3 233.9,35.81 233.03,36.71 L233.03,36.71 L233.03,28.01 Z M37.49,28.7 L30.95,28.7 L30.838565,28.7051615 C30.4779339,28.7394215 30.23,28.9427273 30.23,29.27 L30.23,29.27 L30.23,29.39 L30.2419682,29.5335579 C30.3670242,30.2758824 31.43,30.6711765 31.43,31.97 L31.43,31.97 L31.43,46.73 L31.4180318,46.9632465 C31.2929758,48.1540138 30.23,48.5194118 30.23,49.31 L30.23,49.31 L30.23,49.43 L30.2373028,49.5244177 C30.2855372,49.8264463 30.5681818,50 30.95,50 L30.95,50 L37.49,50 L37.6081968,49.9948385 C37.9868595,49.9605785 38.21,49.7572727 38.21,49.43 L38.21,49.43 L38.21,49.31 L38.1968349,49.1664421 C38.0592734,48.4241176 36.89,48.0288235 36.89,46.73 L36.89,46.73 L36.92,40.43 L44.78,40.43 L44.81,46.73 L44.798331,46.9632465 C44.6764014,48.1540138 43.64,48.5194118 43.64,49.31 L43.64,49.31 L43.64,49.43 L43.6459279,49.5244177 C43.6853719,49.8264463 43.9209091,50 44.33,50 L44.33,50 L50.87,50 L50.981435,49.9948385 C51.3420661,49.9605785 51.59,49.7572727 51.59,49.43 L51.59,49.43 L51.59,49.31 L51.5765357,49.1664421 C51.4358478,48.4241176 50.24,48.0288235 50.24,46.73 L50.24,46.73 L50.24,31.97 L50.2534643,31.7367535 C50.3941522,30.5459862 51.59,30.1805882 51.59,29.39 L51.59,29.39 L51.59,29.27 L51.5826972,29.1755823 C51.5344628,28.8735537 51.2518182,28.7 50.87,28.7 L50.87,28.7 L44.33,28.7 L44.2125019,28.7051615 C43.8383471,28.7394215 43.64,28.9427273 43.64,29.27 L43.64,29.27 L43.64,29.39 L43.651669,29.5335579 C43.7735986,30.2758824 44.81,30.6711765 44.81,31.97 L44.81,31.97 L44.78,38.09 L36.89,38.09 L36.92,31.97 L36.9328659,31.7367535 C37.067301,30.5459862 38.21,30.1805882 38.21,29.39 L38.21,29.39 L38.21,29.27 L38.2033734,29.1755823 C38.1594215,28.8735537 37.8990909,28.7 37.49,28.7 L37.49,28.7 Z M157.46,28.7 L143.36,28.7 L143.249264,28.7051615 C142.89314,28.7394215 142.67,28.9427273 142.67,29.27 L142.67,29.27 L142.67,29.39 L142.681968,29.5335579 C142.807024,30.2758824 143.87,30.6711765 143.87,31.97 L143.87,31.97 L143.87,46.73 L143.858032,46.9632465 C143.732976,48.1540138 142.67,48.5194118 142.67,49.31 L142.67,49.31 L142.67,49.43 L142.677303,49.5244177 C142.725537,49.8264463 143.008182,50 143.39,50 L143.39,50 L149.99,50 L150.101435,49.9948385 C150.462066,49.9605785 150.71,49.7572727 150.71,49.43 L150.71,49.43 L150.71,49.31 L150.696536,49.1664421 C150.555848,48.4241176 149.36,48.0288235 149.36,46.73 L149.36,46.73 L149.36,41.06 L152.72,41.06 L152.910764,41.0748202 C154.14102,41.2691837 154.561429,43.31 155.39,43.31 L155.39,43.31 L155.66,43.31 L155.754418,43.3033959 C156.056446,43.2596694 156.23,43.0018182 156.23,42.62 L156.23,42.62 L156.23,37.22 L156.224838,37.1092637 C156.190579,36.7531405 155.987273,36.53 155.66,36.53 L155.66,36.53 L155.39,36.53 L155.27402,36.5446056 C154.479835,36.7458884 154.037273,38.96 152.72,38.96 L152.72,38.96 L149.36,38.96 L149.36,32.24 L149.366008,32.0666049 C149.433519,31.1211111 150.06,30.8 150.74,30.8 L150.74,30.8 L153.62,30.8 L153.851587,30.8140878 C155.815556,31.0551852 156.682222,34.31 158.3,34.31 L158.3,34.31 L158.45,34.31 L158.556443,34.3049927 C159.005,34.2617857 159.283571,33.9414286 159.2,33.44 L159.2,33.44 L158.48,29.66 L158.45234,29.5240598 C158.323571,28.9586735 158.072857,28.7 157.46,28.7 L157.46,28.7 Z M257,28.7 L249.62,28.7 L249.501803,28.7051615 C249.12314,28.7394215 248.9,28.9427273 248.9,29.27 L248.9,29.27 L248.9,29.36 L248.907638,29.4745567 C249.013368,30.2492769 250.191364,30.4822727 250.85,32 L250.85,32 L257.87,48.62 L257.939568,48.7791411 C258.315225,49.6013841 258.775294,50 259.82,50 C260.66,50 261.29,49.52 261.62,48.5 L261.62,48.5 L265.04,38.21 L268.43,48.62 L268.491128,48.7887573 C268.820937,49.6044922 269.51,50 270.41,50 C271.34,50 272.06,49.55 272.42,48.5 L272.42,48.5 L278.09,31.97 L278.167913,31.7581799 C278.741942,30.3376033 279.89,30.1918182 279.89,29.39 L279.89,29.39 L279.89,29.27 L279.883396,29.1755823 C279.839669,28.8735537 279.581818,28.7 279.2,28.7 L279.2,28.7 L274.67,28.7 L274.551803,28.7051615 C274.17314,28.7394215 273.95,28.9427273 273.95,29.27 L273.95,29.27 L273.95,29.39 L273.959214,29.4969664 C274.09206,30.2632325 275.610435,30.65 275.18,31.97 L275.18,31.97 L271.61,43.25 L268.37,31.97 L268.326541,31.7859738 C268.06112,30.366848 269.72,30.1952 269.72,29.36 L269.72,29.36 L269.72,29.27 L269.712697,29.1755823 C269.664463,28.8735537 269.381818,28.7 269,28.7 L269,28.7 L261.74,28.7 L261.629264,28.7051615 C261.27314,28.7394215 261.05,28.9427273 261.05,29.27 L261.05,29.27 L261.05,29.36 L261.062566,29.4940618 C261.21097,30.2796953 262.630526,30.7478947 263,31.97 L263,31.97 L263.72,34.22 L260.75,43.34 L256.58,32 L256.525249,31.8219158 C256.207807,30.5577883 257.69,30.1934783 257.69,29.39 L257.69,29.39 L257.69,29.27 L257.683396,29.1755823 C257.639669,28.8735537 257.381818,28.7 257,28.7 L257,28.7 Z M316.035309,27.9806944 C315.982315,27.4793519 315.483333,27.0716667 314.69,27.44 L314.69,27.44 L309.89,29.66 L309.76465,29.728107 C309.443333,29.9055556 309.23,30.0566667 309.23,30.35 L309.23,30.35 L309.23,30.47 L309.24284,30.5919033 C309.385556,31.2664815 310.67,31.6883333 310.67,33.02 L310.67,33.02 L310.67,46.73 L310.658032,46.9629534 C310.532976,48.150692 309.47,48.4911765 309.47,49.31 L309.47,49.31 L309.47,49.43 L309.477303,49.5244177 C309.525537,49.8264463 309.808182,50 310.19,50 L310.19,50 L316.67,50 L316.781435,49.9948385 C317.142066,49.9605785 317.39,49.7572727 317.39,49.43 L317.39,49.43 L317.39,49.31 L317.376536,49.1617525 C317.235848,48.3975433 316.04,48.0288235 316.04,46.73 L316.04,46.73 L316.04,44.93 L317.54,43.55 L320.18,47.48 L320.245741,47.6004681 C320.540093,48.2585185 319.55,48.5166667 319.55,49.31 L319.55,49.31 L319.55,49.4 L319.556604,49.4951165 C319.600331,49.8016529 319.858182,50 320.24,50 L320.24,50 L326.54,50 L326.650736,49.9948385 C327.00686,49.9605785 327.23,49.7572727 327.23,49.43 L327.23,49.43 L327.23,49.31 L327.216077,49.1582715 C327.079297,48.4274609 325.971875,48.09875 325.55,47.48 L325.55,47.48 L320.72,40.58 L322.64,38.81 L322.798736,38.6682132 C323.977807,37.6499244 325.46,37.0934783 325.46,36.29 L325.46,36.29 L325.46,36.17 L325.453396,36.0755823 C325.409669,35.7735537 325.151818,35.6 324.77,35.6 L324.77,35.6 L320.03,35.6 L319.919264,35.6058603 C319.56314,35.6446281 319.34,35.8727273 319.34,36.2 L319.34,36.2 L319.34,36.32 L319.347789,36.4177587 C319.470224,37.20416 320.9828,38.0912 320.09,38.84 L320.09,38.84 L316.04,42.32 L316.04,28.07 Z M200.325547,27.9851174 C200.272327,27.478892 199.745789,27.0421053 198.95,27.44 L198.95,27.44 L194.42,29.66 L194.29465,29.728107 C193.973333,29.9055556 193.76,30.0566667 193.76,30.35 L193.76,30.35 L193.76,30.47 L193.771669,30.5988968 C193.893599,31.2694118 194.93,31.6929412 194.93,33.02 L194.93,33.02 L194.93,46.73 L194.918331,46.9629534 C194.796401,48.150692 193.76,48.4911765 193.76,49.31 L193.76,49.31 L193.76,49.43 L193.766604,49.5244177 C193.810331,49.8264463 194.068182,50 194.45,50 L194.45,50 L200.93,50 L201.041435,49.9948385 C201.402066,49.9605785 201.65,49.7572727 201.65,49.43 L201.65,49.43 L201.65,49.31 L201.636835,49.1617525 C201.499273,48.3975433 200.33,48.0288235 200.33,46.73 L200.33,46.73 L200.33,28.07 Z M209.625788,35.990866 C209.575402,35.4619668 209.075789,35.0521053 208.28,35.45 L208.28,35.45 L203.75,37.67 L203.62862,37.73144 C203.2787,37.9118 203.06,38.063 203.06,38.36 L203.06,38.36 L203.06,38.48 L203.071968,38.6042011 C203.197024,39.2527336 204.26,39.7011765 204.26,41 L204.26,41 L204.26,46.7 L204.248032,46.9332526 C204.122976,48.1241176 203.06,48.4911765 203.06,49.31 L203.06,49.31 L203.06,49.43 L203.066627,49.5244177 C203.110579,49.8264463 203.370909,50 203.78,50 L203.78,50 L210.23,50 L210.348896,49.9948385 C210.732066,49.9605785 210.98,49.7572727 210.98,49.43 L210.98,49.43 L210.98,49.31 L210.966536,49.1614533 C210.825848,48.3941176 209.63,47.9988235 209.63,46.7 L209.63,46.7 L209.63,36.08 Z M285.53,36.77 C287.9,36.77 289.13,42.8 289.13,45.14 C289.13,47.39 288.62,48.83 287.21,48.83 C284.78,48.83 283.58,42.95 283.58,40.52 C283.58,38.09 284.09,36.77 285.53,36.77 Z M165.8,36.77 C168.17,36.77 169.4,42.8 169.4,45.14 C169.4,47.39 168.89,48.83 167.48,48.83 C165.05,48.83 163.85,42.95 163.85,40.52 C163.85,38.09 164.36,36.77 165.8,36.77 Z M183.41,36.77 C185.78,36.77 187.01,42.8 187.01,45.14 C187.01,47.39 186.5,48.83 185.09,48.83 C182.66,48.83 181.46,42.95 181.46,40.52 C181.46,38.09 181.97,36.77 183.41,36.77 Z M96.05,36.77 C97.85,36.77 99.14,41.21 99.14,43.7 C99.14,45.26 98.54,46.22 97.52,46.22 C95.9,46.22 94.49,42.29 94.49,39.29 C94.49,37.7 95.09,36.77 96.05,36.77 Z M206.99,27.83 C204.92,27.83 203.54,29.12 203.54,30.83 C203.54,32.51 204.92,33.83 206.99,33.83 C209.03,33.83 210.41,32.51 210.41,30.83 C210.41,29.12 209.03,27.83 206.99,27.83 Z" id="Combined-Shape"></path>
        </g>
    </g>
</svg>