<?xml version="1.0" encoding="UTF-8"?>
<svg width="429px" height="59px" viewBox="0 0 429 59" version="1.1" xmlns="http://www.w3.org/2000/svg" xmlns:xlink="http://www.w3.org/1999/xlink">
    <title>Group 2</title>
    <g id="Page-2" stroke="none" stroke-width="1" fill="none" fill-rule="evenodd">
        <g id="Desktop-HD" transform="translate(-370.000000, -543.000000)" fill-rule="nonzero">
            <g id="Group-2" transform="translate(370.960000, 543.506001)">
                <g id="Hungry-Foolish" fill="#F7F5F2">
                    <path d="M1.44,45.4939985 L14.52,45.4939985 C15.42,45.4939985 15.96,45.0739985 15.96,44.3539985 L15.96,44.1139985 C15.96,42.4339985 13.32,41.7139985 13.32,38.9539985 L13.38,26.3539985 L29.1,26.3539985 L29.16,38.9539985 C29.16,41.7139985 26.82,42.4339985 26.82,44.1139985 L26.82,44.3539985 C26.82,45.0739985 27.3,45.4939985 28.2,45.4939985 L41.28,45.4939985 C42.12,45.4939985 42.72,45.0739985 42.72,44.3539985 L42.72,44.1139985 C42.72,42.4339985 40.02,41.7139985 40.02,38.9539985 L40.02,9.43399854 C40.02,6.67399854 42.72,5.95399854 42.72,4.27399854 L42.72,4.03399854 C42.72,3.31399854 42.12,2.89399854 41.28,2.89399854 L28.2,2.89399854 C27.3,2.89399854 26.82,3.31399854 26.82,4.03399854 L26.82,4.27399854 C26.82,5.95399854 29.16,6.67399854 29.16,9.43399854 L29.1,21.6739985 L13.32,21.6739985 L13.38,9.43399854 C13.38,6.67399854 15.96,5.95399854 15.96,4.27399854 L15.96,4.03399854 C15.96,3.31399854 15.42,2.89399854 14.52,2.89399854 L1.44,2.89399854 C0.6,2.89399854 0,3.31399854 0,4.03399854 L0,4.27399854 C0,5.95399854 2.4,6.67399854 2.4,9.43399854 L2.4,38.9539985 C2.4,41.7139985 0,42.4339985 0,44.1139985 L0,44.3539985 C0,45.0739985 0.6,45.4939985 1.44,45.4939985 Z" id="Path"></path>
                    <path d="M76.56,38.8939985 L76.56,17.5939985 C76.56,16.5139985 75.66,16.1539985 73.92,16.3939985 L64.98,17.5939985 C64.14,17.7139985 63.6,18.3139985 63.6,18.9739985 L63.6,19.2139985 C63.6,20.7139985 66,21.4339985 66,24.2539985 L66,36.1339985 C66,39.7939985 64.26,42.1339985 62.04,42.1339985 C59.4,42.1339985 58.14,40.2739985 58.2,35.3539985 L58.38,17.5939985 C58.38,16.5139985 57.3,16.1539985 55.56,16.3939985 L46.62,17.5939985 C45.78,17.7139985 45.24,18.3139985 45.24,18.9739985 L45.24,19.2139985 C45.24,20.7139985 47.64,21.4339985 47.64,24.2539985 L47.64,34.2739985 C47.64,41.9539985 52.8,46.0939985 58.86,46.0939985 C62.94,46.0939985 65.76,44.7739985 67.32,42.3739985 C67.62,44.9539985 69.24,45.8539985 72.96,45.8539985 C76.8,45.8539985 79.14,45.4939985 79.14,43.8739985 C79.14,41.4139985 76.56,43.7539985 76.56,38.8939985 Z" id="Path"></path>
                    <path d="M114.24,38.9539985 L113.46,28.5739985 C112.74,19.0339985 107.22,16.0939985 102,16.0939985 C98.04,16.0939985 95.04,17.7139985 93.42,20.5939985 L93.42,17.7739985 C93.42,16.5739985 92.64,15.5539985 91.14,16.3339985 L82.74,20.4739985 C81.9,20.8939985 81.3,21.2539985 81.3,21.9739985 L81.3,22.1539985 C81.3,23.8939985 84.48,24.2539985 84.48,27.1339985 L84.48,38.9539985 C84.48,41.7139985 81.84,42.4339985 81.84,44.1739985 L81.84,44.4139985 C81.84,45.1339985 82.38,45.5539985 83.28,45.5539985 L96.24,45.5539985 C97.14,45.5539985 97.68,45.1339985 97.68,44.4139985 L97.68,44.1739985 C97.68,42.4339985 95.04,41.7139985 95.04,38.9539985 L95.04,25.8739985 C95.04,22.3939985 96.3,20.0539985 98.94,20.0539985 C101.64,20.0539985 102.78,22.2739985 103.08,28.2139985 L103.68,38.9539985 C103.86,41.7139985 101.52,42.4339985 101.52,44.1739985 L101.52,44.4139985 C101.52,45.1339985 102.06,45.5539985 102.96,45.5539985 L114.96,45.5539985 C115.8,45.5539985 116.4,45.1339985 116.4,44.4139985 L116.4,44.1739985 C116.4,42.4339985 114.42,41.7139985 114.24,38.9539985 Z" id="Path"></path>
                    <path d="M144.96,16.6939985 C139.56,16.6939985 136.98,16.0939985 133.2,16.0939985 C124.56,16.0939985 118.5,21.2539985 118.5,28.8739985 C118.5,36.0139985 124.68,40.9339985 133.08,40.9339985 C133.8,40.9339985 134.58,40.8739985 135.24,40.8139985 C136.92,41.2939985 137.76,43.0939985 137.76,45.6739985 C137.76,48.6739985 135.96,50.7739985 132.78,50.7139985 C127.26,50.6539985 128.16,41.7739985 122.7,41.7739985 C119.88,41.7739985 118.56,43.8739985 118.56,45.7339985 C118.56,50.8339985 124.14,53.5939985 132.72,53.5939985 C141.48,53.5939985 148.38,50.3539985 148.38,45.5539985 C148.38,42.5539985 146.7,40.2739985 141.3,39.1339985 C145.32,37.0939985 147.78,33.4339985 147.78,28.8139985 C147.78,25.9939985 146.58,23.3539985 144.84,21.3739985 C146.76,20.7739985 149.1,21.0139985 149.34,18.6739985 C149.52,17.2939985 148.86,16.6939985 144.96,16.6939985 Z M128.52,24.0739985 C128.52,20.8939985 129.72,19.0339985 131.64,19.0339985 C135.24,19.0339985 137.82,27.9139985 137.82,32.8939985 C137.82,36.0139985 136.62,37.9339985 134.58,37.9339985 C131.34,37.9339985 128.52,30.0739985 128.52,24.0739985 Z" id="Shape"></path>
                    <path d="M172.02,16.0939985 C167.88,16.0939985 165.06,18.1939985 163.74,22.0339985 L163.74,17.6539985 C163.74,16.4539985 163.14,15.6139985 161.58,16.3339985 L153.12,20.2939985 C152.22,20.7739985 151.74,21.3139985 151.74,22.0339985 L151.74,22.2139985 C151.74,23.9539985 154.62,24.1939985 154.62,27.0139985 L154.62,38.9539985 C154.62,41.7139985 152.22,42.4339985 152.22,44.1139985 L152.22,44.3539985 C152.22,45.0739985 152.82,45.4939985 153.66,45.4939985 L166.56,45.4939985 C167.4,45.4939985 168,45.0739985 168,44.3539985 L168,44.1139985 C168,42.4339985 164.82,41.7139985 164.82,38.9539985 L164.82,27.7939985 C164.82,25.1539985 165.12,22.0339985 167.04,22.0339985 C170.04,22.0339985 167.58,27.6739985 173.04,27.6739985 C176.52,27.6739985 177.66,25.0339985 177.66,22.0339985 C177.66,18.6739985 175.56,16.0939985 172.02,16.0939985 Z" id="Path"></path>
                    <path d="M211.02,16.6939985 L202.98,16.6939985 C202.2,16.6939985 201.6,17.1739985 201.6,17.8939985 L201.6,18.1339985 C201.6,19.8139985 206.1,20.4139985 204.42,24.4939985 L198.9,37.8739985 L192.78,23.4739985 C191.34,20.1139985 193.62,19.8139985 193.62,18.1339985 L193.62,17.8939985 C193.62,17.1739985 193.08,16.6939985 192.3,16.6939985 L179.4,16.6939985 C178.56,16.6939985 178.02,17.1139985 178.02,17.8339985 L178.02,18.0739985 C178.02,19.8139985 179.94,20.5339985 181.38,23.3539985 L193.56,47.4139985 C192,51.1339985 189.78,55.2139985 187.92,55.2139985 C185.1,55.2139985 186.96,47.2339985 181.2,47.2339985 C178.5,47.2339985 176.94,48.9139985 176.94,51.4339985 C176.94,54.9139985 180.6,58.3939985 186.48,58.3939985 C192.78,58.3939985 196.14,51.4939985 197.82,47.7739985 L209.16,23.3539985 C210.36,20.6539985 212.4,19.8139985 212.4,18.0739985 L212.4,17.8339985 C212.4,17.1139985 211.86,16.6939985 211.02,16.6939985 Z" id="Path"></path>
                    <path d="M226.32,45.4939985 L239.52,45.4939985 C240.36,45.4939985 240.96,45.0739985 240.96,44.3539985 L240.96,44.1139985 C240.96,42.4339985 238.26,41.7139985 238.26,38.9539985 L238.26,27.6139985 L244.98,27.6139985 C247.74,27.6139985 248.58,32.1139985 250.32,32.1139985 L250.86,32.1139985 C251.58,32.1139985 252,31.5739985 252,30.7339985 L252,19.9339985 C252,19.0939985 251.58,18.5539985 250.86,18.5539985 L250.32,18.5539985 C248.58,18.5539985 247.74,23.4139985 244.98,23.4139985 L238.26,23.4139985 L238.26,9.97399854 C238.26,7.81399854 239.58,7.09399854 241.02,7.09399854 L246.78,7.09399854 C251.04,7.09399854 252.78,14.1139985 256.14,14.1139985 L256.44,14.1139985 C257.46,14.1139985 258.12,13.4539985 257.94,12.3739985 L256.5,4.81399854 C256.26,3.49399854 255.78,2.89399854 254.46,2.89399854 L226.26,2.89399854 C225.42,2.89399854 224.88,3.31399854 224.88,4.03399854 L224.88,4.27399854 C224.88,5.95399854 227.28,6.67399854 227.28,9.43399854 L227.28,38.9539985 C227.28,41.7139985 224.88,42.4339985 224.88,44.1139985 L224.88,44.3539985 C224.88,45.0739985 225.48,45.4939985 226.32,45.4939985 Z" id="Path"></path>
                    <path d="M273.24,46.0939985 C282,46.0939985 289.26,39.9139985 289.26,31.1539985 C289.26,22.3339985 281.82,16.0939985 272.82,16.0939985 C264.24,16.0939985 256.62,22.1539985 256.62,31.0339985 C256.62,39.7339985 264.06,46.0939985 273.24,46.0939985 Z M274.5,43.1539985 C269.64,43.1539985 267.24,31.3939985 267.24,26.5339985 C267.24,21.6739985 268.26,19.0339985 271.14,19.0339985 C275.88,19.0339985 278.34,31.0939985 278.34,35.7739985 C278.34,40.2739985 277.32,43.1539985 274.5,43.1539985 Z" id="Shape"></path>
                    <path d="M308.46,46.0939985 C317.22,46.0939985 324.48,39.9139985 324.48,31.1539985 C324.48,22.3339985 317.04,16.0939985 308.04,16.0939985 C299.46,16.0939985 291.84,22.1539985 291.84,31.0339985 C291.84,39.7339985 299.28,46.0939985 308.46,46.0939985 Z M309.72,43.1539985 C304.86,43.1539985 302.46,31.3939985 302.46,26.5339985 C302.46,21.6739985 303.48,19.0339985 306.36,19.0339985 C311.1,19.0339985 313.56,31.0939985 313.56,35.7739985 C313.56,40.2739985 312.54,43.1539985 309.72,43.1539985 Z" id="Shape"></path>
                    <path d="M328.44,45.4939985 L341.4,45.4939985 C342.24,45.4939985 342.84,45.0739985 342.84,44.3539985 L342.84,44.1139985 C342.84,42.3739985 340.2,41.7139985 340.2,38.9539985 L340.2,1.63399854 C340.2,0.553998542 339.12,-0.466001458 337.44,0.373998542 L328.38,4.81399854 C327.6,5.23399854 327.06,5.53399854 327.06,6.19399854 L327.06,6.43399854 C327.06,7.93399854 329.4,8.71399854 329.4,11.5339985 L329.4,38.9539985 C329.4,41.7139985 327.06,42.3739985 327.06,44.1139985 L327.06,44.3539985 C327.06,45.0739985 327.6,45.4939985 328.44,45.4939985 Z" id="Path"></path>
                    <path d="M347.1,45.4939985 L360,45.4939985 C360.9,45.4939985 361.5,45.0739985 361.5,44.3539985 L361.5,44.1139985 C361.5,42.3739985 358.8,41.6539985 358.8,38.8939985 L358.8,17.6539985 C358.8,16.5139985 357.78,15.5539985 356.1,16.3939985 L347.04,20.8339985 C346.2,21.2539985 345.66,21.5539985 345.66,22.2139985 L345.66,22.4539985 C345.66,23.8939985 348.06,24.7339985 348.06,27.4939985 L348.06,38.8939985 C348.06,41.6539985 345.66,42.3739985 345.66,44.1139985 L345.66,44.3539985 C345.66,45.0739985 346.2,45.4939985 347.1,45.4939985 Z" id="Path"></path>
                    <path d="M377.16,46.0339985 C385.5,46.0339985 390.24,42.1939985 390.24,37.2139985 C390.24,26.1739985 374.88,30.4939985 374.88,22.2739985 C374.88,20.5339985 375.84,18.8539985 377.7,18.8539985 C381.84,18.8539985 379.92,26.9539985 385.74,26.9539985 C387.96,26.9539985 389.76,25.3939985 389.76,23.2939985 C389.76,19.3939985 384.78,16.0939985 377.16,16.0939985 C369.66,16.0939985 364.5,19.8739985 364.5,25.2139985 C364.5,36.8539985 380.4,32.2339985 380.4,40.0939985 C380.4,42.4939985 378.96,43.3939985 377.16,43.3939985 C372.18,43.3939985 374.22,35.1739985 368.22,35.1739985 C365.82,35.1739985 363.96,36.3139985 363.96,39.0139985 C363.96,43.2139985 369.6,46.0339985 377.16,46.0339985 Z" id="Path"></path>
                    <path d="M425.1,38.8939985 L424.32,28.0939985 C423.66,19.0339985 418.14,16.0939985 412.92,16.0939985 C409.86,16.0939985 407.34,17.1139985 405.6,18.9139985 L405.6,1.51399854 C405.6,0.133998542 404.7,-0.346001458 403.32,0.253998542 L393.84,4.45399854 C393,4.81399854 392.46,5.41399854 392.46,6.13399854 L392.46,6.31399854 C392.46,7.99399854 395.4,8.29399854 395.4,11.1139985 L395.4,38.9539985 C395.4,41.7139985 392.76,42.3739985 392.76,44.1139985 L392.76,44.3539985 C392.76,45.0739985 393.3,45.4939985 394.14,45.4939985 L407.16,45.4939985 C408,45.4939985 408.6,45.0739985 408.6,44.3539985 L408.6,44.1139985 C408.6,42.3739985 405.9,41.7139985 405.9,38.9539985 L405.9,25.8739985 C405.9,22.3939985 407.16,20.0539985 409.8,20.0539985 C412.56,20.0539985 413.7,22.2739985 414,27.7339985 L414.6,38.8939985 C414.72,41.6539985 412.44,42.3739985 412.44,44.1139985 L412.44,44.3539985 C412.44,45.0739985 412.98,45.4939985 413.88,45.4939985 L425.82,45.4939985 C426.72,45.4939985 427.26,45.0739985 427.26,44.3539985 L427.26,44.1139985 C427.26,42.3739985 425.34,41.6539985 425.1,38.8939985 Z" id="Path"></path>
                </g>
                <path d="M353.52,13.1539985 C357.6,13.1539985 360.36,10.5139985 360.36,7.15399854 C360.36,3.73399854 357.6,1.15399854 353.52,1.15399854 C349.38,1.15399854 346.62,3.73399854 346.62,7.15399854 C346.62,10.5139985 349.38,13.1539985 353.52,13.1539985 Z" id="Path" fill="#F26B3D"></path>
            </g>
        </g>
    </g>
</svg>