<?xml version="1.0" encoding="UTF-8"?>
<svg width="500px" height="100px" viewBox="0 0 500 100" version="1.1" xmlns="http://www.w3.org/2000/svg" xmlns:xlink="http://www.w3.org/1999/xlink">
    <title>Artboard</title>
    <g id="Artboard" stroke="none" stroke-width="1" fill="none" fill-rule="evenodd">
        <line x1="108.5" y1="80" x2="210.5" y2="80" id="Path-2" stroke="#BBBBBB" stroke-linecap="round"></line>
        <line x1="278.5" y1="80" x2="392.5" y2="80" id="Path-2" stroke="#BBBBBB" stroke-linecap="round"></line>
        <polyline id="Path-3" stroke="#BBBBBB" stroke-linecap="round" stroke-linejoin="round" points="384.5 85 392.5 80 384.5 75"></polyline>
        <polyline id="Path-3" stroke="#BBBBBB" stroke-linecap="round" stroke-linejoin="round" points="88.5 85 96.5 80 88.5 75"></polyline>
        <polyline id="Path-3" stroke="#BBBBBB" stroke-linecap="round" stroke-linejoin="round" points="94.5 85 102.5 80 94.5 75"></polyline>
        <polyline id="Path-3" stroke="#BBBBBB" stroke-linecap="round" stroke-linejoin="round" points="100.5 85 108.5 80 100.5 75"></polyline>
        <polygon id="Path" fill="#BBBBBB" fill-rule="nonzero" points="226.69 85.18 226.405 85.21 224.545 77.59 219.805 85.21 219.505 85.18 218.2 74.005 220.285 74.005 220.855 80.89 225.115 73.915 225.34 73.915 227.02 80.92 230.215 74.005 232.33 74.005"></polygon>
        <path d="M244.165,78.85 C244.165,77.81 243.8925,76.99 243.3475,76.39 C242.8025,75.79 242.055,75.49 241.105,75.49 C240.515,75.49 239.9725,75.6125 239.4775,75.8575 C238.9825,76.1025 238.555,76.4375 238.195,76.8625 C237.835,77.2875 237.5525,77.7825 237.3475,78.3475 C237.1425,78.9125 237.04,79.515 237.04,80.155 C237.04,81.185 237.31,82.0025 237.85,82.6075 C238.39,83.2125 239.135,83.515 240.085,83.515 C240.675,83.515 241.22,83.3925 241.72,83.1475 C242.22,82.9025 242.65,82.5675 243.01,82.1425 C243.37,81.7175 243.6525,81.2225 243.8575,80.6575 C244.0625,80.0925 244.165,79.49 244.165,78.85 Z M246.115,78.73 C246.115,79.53 245.97,80.315 245.68,81.085 C245.39,81.855 244.98,82.545 244.45,83.155 C243.92,83.765 243.2775,84.255 242.5225,84.625 C241.7675,84.995 240.925,85.18 239.995,85.18 C239.265,85.18 238.5975,85.065 237.9925,84.835 C237.3875,84.605 236.87,84.275 236.44,83.845 C236.01,83.415 235.675,82.8975 235.435,82.2925 C235.195,81.6875 235.075,81.01 235.075,80.26 C235.075,79.46 235.22,78.675 235.51,77.905 C235.8,77.135 236.21,76.4475 236.74,75.8425 C237.27,75.2375 237.915,74.75 238.675,74.38 C239.435,74.01 240.28,73.825 241.21,73.825 C241.94,73.825 242.605,73.94 243.205,74.17 C243.805,74.4 244.32,74.73 244.75,75.16 C245.18,75.59 245.515,76.105 245.755,76.705 C245.995,77.305 246.115,77.98 246.115,78.73 Z" id="Shape" fill="#BBBBBB" fill-rule="nonzero"></path>
        <path d="M256.645,77.365 C256.645,76.815 256.46,76.385 256.09,76.075 C255.72,75.765 255.21,75.61 254.56,75.61 C254.38,75.61 254.2225,75.615 254.0875,75.625 C253.9525,75.635 253.815,75.655 253.675,75.685 L252.955,79.465 C253.135,79.485 253.3,79.4975 253.45,79.5025 C253.6,79.5075 253.765,79.51 253.945,79.51 C254.765,79.51 255.42,79.3175 255.91,78.9325 C256.4,78.5475 256.645,78.025 256.645,77.365 Z M258.61,77.17 C258.61,77.6 258.5425,78 258.4075,78.37 C258.2725,78.74 258.08,79.0775 257.83,79.3825 C257.58,79.6875 257.2825,79.9525 256.9375,80.1775 C256.5925,80.4025 256.21,80.585 255.79,80.725 L257.89,85 L255.715,85 L253.99,81.07 C253.96,81.08 253.915,81.085 253.855,81.085 C253.795,81.085 253.75,81.085 253.72,81.085 C253.53,81.085 253.3475,81.08 253.1725,81.07 C252.9975,81.06 252.825,81.045 252.655,81.025 L251.875,85 L250,85 L252.13,74.08 C252.46,74.03 252.81,73.9925 253.18,73.9675 C253.55,73.9425 253.97,73.93 254.44,73.93 C255.09,73.93 255.6725,74.0075 256.1875,74.1625 C256.7025,74.3175 257.14,74.535 257.5,74.815 C257.86,75.095 258.135,75.435 258.325,75.835 C258.515,76.235 258.61,76.68 258.61,77.17 Z" id="Shape" fill="#BBBBBB" fill-rule="nonzero"></path>
        <polygon id="Path" fill="#BBBBBB" fill-rule="nonzero" points="267.95 79.39 271.7 85 269.45 85 266.135 79.72 265.115 85 263.24 85 265.385 74.005 267.245 74.005 266.285 78.955 271.25 74.005 273.605 74.005"></polygon>
        <polygon id="Path" fill="#000000" fill-rule="nonzero" points="52.825 56 52.825 41.3 38.725 41.3 38.725 56 30.225 56 30.225 19.35 38.725 19.35 38.725 33.7 52.825 33.7 52.825 19.35 61.325 19.35 61.325 56"></polygon>
        <path d="M98.975,41.1 C98.975,46.2 97.5916667,50.0583333 94.825,52.675 C92.0583333,55.2916667 88.2083333,56.6 83.275,56.6 C78.3083333,56.6 74.5083333,55.3 71.875,52.7 C69.2416667,50.1 67.925,46.2333333 67.925,41.1 L67.925,19.35 L76.425,19.35 L76.425,40.5 C76.425,43.1 76.9916667,45.1416667 78.125,46.625 C79.2583333,48.1083333 81.0416667,48.85 83.475,48.85 C85.875,48.85 87.6416667,48.1083333 88.775,46.625 C89.9083333,45.1416667 90.475,43.1 90.475,40.5 L90.475,19.35 L98.975,19.35 L98.975,41.1 Z" id="Path" fill="#000000" fill-rule="nonzero"></path>
        <polygon id="Path" fill="#000000" fill-rule="nonzero" points="136.075 56.7 113.975 36.85 113.975 56 105.475 56 105.475 18.85 106.625 18.65 128.425 38.35 128.425 19.35 136.925 19.35 136.925 56.55"></polygon>
        <path d="M175.825,35.4 L175.825,52.9 C173.791667,54.0666667 171.666667,54.975 169.45,55.625 C167.233333,56.275 164.725,56.6 161.925,56.6 C159.225,56.6 156.708333,56.1416667 154.375,55.225 C152.041667,54.3083333 150.008333,53.0166667 148.275,51.35 C146.541667,49.6833333 145.175,47.6916667 144.175,45.375 C143.175,43.0583333 142.675,40.5 142.675,37.7 C142.675,34.9 143.183333,32.3333333 144.2,30 C145.216667,27.6666667 146.608333,25.6666667 148.375,24 C150.141667,22.3333333 152.225,21.0416667 154.625,20.125 C157.025,19.2083333 159.608333,18.75 162.375,18.75 C164.775,18.75 166.966667,19.0333333 168.95,19.6 C170.933333,20.1666667 172.841667,20.9333333 174.675,21.9 L171.125,28.75 C168.491667,27.3833333 165.758333,26.7 162.925,26.7 C161.091667,26.7 159.483333,26.9666667 158.1,27.5 C156.716667,28.0333333 155.55,28.7916667 154.6,29.775 C153.65,30.7583333 152.933333,31.925 152.45,33.275 C151.966667,34.625 151.725,36.1 151.725,37.7 C151.725,39.4333333 152,41.0083333 152.55,42.425 C153.1,43.8416667 153.858333,45.0333333 154.825,46 C155.791667,46.9666667 156.925,47.7166667 158.225,48.25 C159.525,48.7833333 160.925,49.05 162.425,49.05 C163.791667,49.05 164.866667,48.975 165.65,48.825 C166.433333,48.675 167.158333,48.4166667 167.825,48.05 L167.825,42.65 L160.475,42.65 L160.475,35.4 L175.825,35.4 Z" id="Path" fill="#000000" fill-rule="nonzero"></path>
        <path d="M199.575,31.55 C199.575,30.0166667 199.025,28.825 197.925,27.975 C196.825,27.125 195.358333,26.7 193.525,26.7 C192.858333,26.7 192.291667,26.7166667 191.825,26.75 C191.358333,26.7833333 190.825,26.85 190.225,26.95 L190.225,37.05 C190.791667,37.1166667 191.258333,37.1583333 191.625,37.175 C191.991667,37.1916667 192.425,37.2 192.925,37.2 C194.958333,37.2 196.575,36.725 197.775,35.775 C198.975,34.825 199.575,33.4166667 199.575,31.55 Z M201.075,56 L194.825,44.05 C194.558333,44.0833333 194.316667,44.1 194.1,44.1 C193.883333,44.1 193.641667,44.1 193.375,44.1 C192.741667,44.1 192.208333,44.0916667 191.775,44.075 C191.341667,44.0583333 190.825,44.0333333 190.225,44 L190.225,56 L181.725,56 L181.725,19.7 C183.291667,19.5333333 184.941667,19.3916667 186.675,19.275 C188.408333,19.1583333 190.358333,19.1 192.525,19.1 C195.391667,19.1 197.825,19.4166667 199.825,20.05 C201.825,20.6833333 203.466667,21.55 204.75,22.65 C206.033333,23.75 206.966667,25.0416667 207.55,26.525 C208.133333,28.0083333 208.425,29.5833333 208.425,31.25 C208.425,33.45 207.875,35.475 206.775,37.325 C205.675,39.175 204.125,40.6833333 202.125,41.85 L210.725,56 L201.075,56 Z" id="Shape" fill="#000000" fill-rule="nonzero"></path>
        <polygon id="Path" fill="#000000" fill-rule="nonzero" points="230.625 41.5 230.625 56 222.125 56 222.125 41.45 209.225 19.35 218.975 19.35 226.475 33.4 233.975 19.35 243.525 19.35"></polygon>
        <polygon id="Path" fill="#000000" fill-rule="nonzero" points="264.775 27.15 264.775 35.25 277.375 35.25 277.375 42.7 264.775 42.7 264.775 56 256.275 56 256.275 19.35 279.475 19.35 279.475 27.15"></polygon>
        <path d="M311.075,37.7 C311.075,36.0333333 310.841667,34.5083333 310.375,33.125 C309.908333,31.7416667 309.25,30.55 308.4,29.55 C307.55,28.55 306.533333,27.7666667 305.35,27.2 C304.166667,26.6333333 302.841667,26.35 301.375,26.35 C299.941667,26.35 298.625,26.6333333 297.425,27.2 C296.225,27.7666667 295.2,28.55 294.35,29.55 C293.5,30.55 292.841667,31.7416667 292.375,33.125 C291.908333,34.5083333 291.675,36.0333333 291.675,37.7 C291.675,39.3333333 291.908333,40.8416667 292.375,42.225 C292.841667,43.6083333 293.5,44.8083333 294.35,45.825 C295.2,46.8416667 296.225,47.6333333 297.425,48.2 C298.625,48.7666667 299.941667,49.05 301.375,49.05 C302.841667,49.05 304.166667,48.7666667 305.35,48.2 C306.533333,47.6333333 307.55,46.8416667 308.4,45.825 C309.25,44.8083333 309.908333,43.6083333 310.375,42.225 C310.841667,40.8416667 311.075,39.3333333 311.075,37.7 Z M320.175,37.7 C320.175,40.4 319.716667,42.9 318.8,45.2 C317.883333,47.5 316.591667,49.4916667 314.925,51.175 C313.258333,52.8583333 311.266667,54.1833333 308.95,55.15 C306.633333,56.1166667 304.058333,56.6 301.225,56.6 C298.391667,56.6 295.825,56.1166667 293.525,55.15 C291.225,54.1833333 289.266667,52.8583333 287.65,51.175 C286.033333,49.4916667 284.791667,47.5 283.925,45.2 C283.058333,42.9 282.625,40.4 282.625,37.7 C282.625,35 283.083333,32.4916667 284,30.175 C284.916667,27.8583333 286.2,25.8583333 287.85,24.175 C289.5,22.4916667 291.491667,21.1666667 293.825,20.2 C296.158333,19.2333333 298.741667,18.75 301.575,18.75 C304.408333,18.75 306.966667,19.2333333 309.25,20.2 C311.533333,21.1666667 313.483333,22.4916667 315.1,24.175 C316.716667,25.8583333 317.966667,27.8583333 318.85,30.175 C319.733333,32.4916667 320.175,35 320.175,37.7 Z" id="Shape" fill="#000000" fill-rule="nonzero"></path>
        <path d="M353.125,37.7 C353.125,36.0333333 352.891667,34.5083333 352.425,33.125 C351.958333,31.7416667 351.3,30.55 350.45,29.55 C349.6,28.55 348.583333,27.7666667 347.4,27.2 C346.216667,26.6333333 344.891667,26.35 343.425,26.35 C341.991667,26.35 340.675,26.6333333 339.475,27.2 C338.275,27.7666667 337.25,28.55 336.4,29.55 C335.55,30.55 334.891667,31.7416667 334.425,33.125 C333.958333,34.5083333 333.725,36.0333333 333.725,37.7 C333.725,39.3333333 333.958333,40.8416667 334.425,42.225 C334.891667,43.6083333 335.55,44.8083333 336.4,45.825 C337.25,46.8416667 338.275,47.6333333 339.475,48.2 C340.675,48.7666667 341.991667,49.05 343.425,49.05 C344.891667,49.05 346.216667,48.7666667 347.4,48.2 C348.583333,47.6333333 349.6,46.8416667 350.45,45.825 C351.3,44.8083333 351.958333,43.6083333 352.425,42.225 C352.891667,40.8416667 353.125,39.3333333 353.125,37.7 Z M362.225,37.7 C362.225,40.4 361.766667,42.9 360.85,45.2 C359.933333,47.5 358.641667,49.4916667 356.975,51.175 C355.308333,52.8583333 353.316667,54.1833333 351,55.15 C348.683333,56.1166667 346.108333,56.6 343.275,56.6 C340.441667,56.6 337.875,56.1166667 335.575,55.15 C333.275,54.1833333 331.316667,52.8583333 329.7,51.175 C328.083333,49.4916667 326.841667,47.5 325.975,45.2 C325.108333,42.9 324.675,40.4 324.675,37.7 C324.675,35 325.133333,32.4916667 326.05,30.175 C326.966667,27.8583333 328.25,25.8583333 329.9,24.175 C331.55,22.4916667 333.541667,21.1666667 335.875,20.2 C338.208333,19.2333333 340.791667,18.75 343.625,18.75 C346.458333,18.75 349.016667,19.2333333 351.3,20.2 C353.583333,21.1666667 355.533333,22.4916667 357.15,24.175 C358.766667,25.8583333 360.016667,27.8583333 360.9,30.175 C361.783333,32.4916667 362.225,35 362.225,37.7 Z" id="Shape" fill="#000000" fill-rule="nonzero"></path>
        <polygon id="Path" fill="#000000" fill-rule="nonzero" points="367.975 56 367.975 19.35 376.475 19.35 376.475 48.25 391.175 48.25 391.175 56"></polygon>
        <polygon id="Path" fill="#000000" fill-rule="nonzero" points="395.325 56 395.325 19.35 403.825 19.35 403.825 56"></polygon>
        <path d="M433.725,45.2 C433.725,46.6666667 433.458333,48.0833333 432.925,49.45 C432.391667,50.8166667 431.583333,52.0333333 430.5,53.1 C429.416667,54.1666667 428.058333,55.0166667 426.425,55.65 C424.791667,56.2833333 422.875,56.6 420.675,56.6 C419.641667,56.6 418.566667,56.5 417.45,56.3 C416.333333,56.1 415.233333,55.8333333 414.15,55.5 C413.066667,55.1666667 412.025,54.775 411.025,54.325 C410.025,53.875 409.125,53.3833333 408.325,52.85 L410.675,45.15 C412.175,46.2166667 413.825,47.075 415.625,47.725 C417.425,48.375 419.191667,48.7 420.925,48.7 C422.425,48.7 423.491667,48.3916667 424.125,47.775 C424.758333,47.1583333 425.075,46.4 425.075,45.5 C425.075,45.0333333 425,44.5916667 424.85,44.175 C424.7,43.7583333 424.383333,43.3333333 423.9,42.9 C423.416667,42.4666667 422.75,42.025 421.9,41.575 C421.05,41.125 419.925,40.6166667 418.525,40.05 C416.925,39.3833333 415.566667,38.6583333 414.45,37.875 C413.333333,37.0916667 412.433333,36.25 411.75,35.35 C411.066667,34.45 410.575,33.4916667 410.275,32.475 C409.975,31.4583333 409.825,30.4 409.825,29.3 C409.825,27.9666667 410.1,26.6666667 410.65,25.4 C411.2,24.1333333 412.008333,23.0083333 413.075,22.025 C414.141667,21.0416667 415.483333,20.25 417.1,19.65 C418.716667,19.05 420.591667,18.75 422.725,18.75 C423.725,18.75 424.716667,18.8333333 425.7,19 C426.683333,19.1666667 427.625,19.3833333 428.525,19.65 C429.425,19.9166667 430.258333,20.2166667 431.025,20.55 C431.791667,20.8833333 432.441667,21.2333333 432.975,21.6 L430.825,29.2 C430.291667,28.8333333 429.691667,28.475 429.025,28.125 C428.358333,27.775 427.666667,27.4583333 426.95,27.175 C426.233333,26.8916667 425.516667,26.6583333 424.8,26.475 C424.083333,26.2916667 423.391667,26.2 422.725,26.2 C421.158333,26.2 420.041667,26.5 419.375,27.1 C418.708333,27.7 418.375,28.3833333 418.375,29.15 C418.375,29.75 418.491667,30.2666667 418.725,30.7 C418.958333,31.1333333 419.341667,31.5333333 419.875,31.9 C420.408333,32.2666667 421.083333,32.6333333 421.9,33 C422.716667,33.3666667 423.691667,33.8 424.825,34.3 C426.525,35.0333333 427.95,35.7916667 429.1,36.575 C430.25,37.3583333 431.166667,38.1916667 431.85,39.075 C432.533333,39.9583333 433.016667,40.9083333 433.3,41.925 C433.583333,42.9416667 433.725,44.0333333 433.725,45.2 Z" id="Path" fill="#000000" fill-rule="nonzero"></path>
        <polygon id="Path" fill="#000000" fill-rule="nonzero" points="461.275 56 461.275 41.3 447.175 41.3 447.175 56 438.675 56 438.675 19.35 447.175 19.35 447.175 33.7 461.275 33.7 461.275 19.35 469.775 19.35 469.775 56"></polygon>
    </g>
</svg>