<?xml version="1.0" encoding="UTF-8"?>
<svg width="190px" height="190px" viewBox="0 0 190 190" version="1.1" xmlns="http://www.w3.org/2000/svg" xmlns:xlink="http://www.w3.org/1999/xlink">
    <title>Desktop HD</title>
    <g id="Page-1" stroke="none" stroke-width="1" fill="none" fill-rule="evenodd">
        <g id="Desktop-HD" transform="translate(-80.000000, -80.000000)" fill="#000000" fill-rule="nonzero">
            <g id="Hungry-Foolish-Work" transform="translate(99.797140, 99.500000)">
                <path d="M6.26285987,17.34 L6.26285987,2.22 C6.26285987,1.02 5.30285987,0.06 4.10285987,0.06 L2.42285987,0.06 C1.22285987,0.06 0.262859869,1.02 0.262859869,2.22 L0.262859869,38.34 C0.262859869,39.54 1.22285987,40.5 2.42285987,40.5 L4.10285987,40.5 C5.30285987,40.5 6.26285987,39.54 6.26285987,38.34 L6.26285987,23.28 L12.9228599,23.28 L12.9228599,38.34 C12.9228599,39.54 13.8828599,40.5 15.0828599,40.5 L16.7628599,40.5 C17.9628599,40.5 18.9228599,39.54 18.9228599,38.34 L18.9228599,2.22 C18.9228599,1.02 17.9628599,0.06 16.7628599,0.06 L15.0828599,0.06 C13.8828599,0.06 12.9228599,1.02 12.9228599,2.22 L12.9228599,17.34 L6.26285987,17.34 Z" id="Path"></path>
                <path d="M23.4828599,29.46 C23.4828599,35.82 26.1228599,40.44 33.3228599,40.44 C40.2828599,40.44 43.1628599,36.18 43.1628599,29.46 L43.1628599,2.16 C43.1628599,0.96 42.2028599,0 41.0028599,0 L39.3228599,0 C38.1828599,0 37.2228599,0.96 37.2228599,2.16 L37.2228599,29.46 C37.2228599,32.34 36.3828599,34.5 33.3228599,34.5 C30.3828599,34.5 29.4228599,32.64 29.4228599,29.46 L29.4228599,2.16 C29.4228599,0.96 28.4628599,0 27.2628599,0 L25.5828599,0 C24.4428599,0 23.4828599,0.96 23.4828599,2.16 L23.4828599,29.46 Z" id="Path"></path>
                <path d="M66.1428599,40.5 C67.3428599,40.5 68.3028599,39.54 68.3028599,38.34 L68.3028599,2.22 C68.3028599,1.02 67.3428599,0.06 66.1428599,0.06 L64.4628599,0.06 C63.2628599,0.06 62.3028599,1.02 62.3028599,2.22 L62.3028599,22.02 L53.9628599,1.38 C53.7228599,0.72 52.7628599,0.06 51.9828599,0.06 L50.5428599,0.06 C49.4028599,0.06 48.3828599,1.02 48.3828599,2.22 L48.3828599,38.34 C48.3828599,39.54 49.4028599,40.5 50.5428599,40.5 L52.2828599,40.5 C53.4228599,40.5 54.4428599,39.54 54.4428599,38.34 L54.4428599,18.54 L62.7828599,39.18 C63.0228599,39.84 64.0428599,40.5 64.7628599,40.5 L66.1428599,40.5 Z" id="Path"></path>
                <path d="M84.6828599,20.22 C81.1428599,20.22 81.3228599,26.22 84.6828599,26.22 L86.7828599,26.22 L86.7828599,28.8 C86.7828599,32.7 85.5228599,34.56 82.9428599,34.56 C80.3028599,34.56 79.0428599,32.7 79.0428599,28.8 C79.0428599,27.24 79.0428599,21.24 79.0428599,11.7 C79.0428599,8.94 79.5828599,7.5 80.4228599,6.78 C81.0828599,6.12 82.1028599,6 82.9428599,6 C83.7828599,6 84.7428599,6.12 85.4628599,6.78 C86.1828599,7.44 86.7828599,8.88 86.7828599,11.7 L86.7828599,12.54 C86.7828599,13.74 87.7428599,14.7 88.9428599,14.7 L90.6828599,14.7 C91.8228599,14.7 92.7828599,13.74 92.7828599,12.54 L92.7828599,11.7 C92.7828599,4.08 89.5428599,0.06 82.9428599,0.06 C76.3428599,0.06 73.0428599,4.08 73.0428599,11.7 L73.0428599,28.8 C73.0428599,36.36 76.3428599,40.5 82.9428599,40.5 C89.5428599,40.5 92.7828599,36.42 92.7828599,28.8 L92.7828599,22.38 C92.7828599,21.18 91.8228599,20.22 90.6828599,20.22 L84.6828599,20.22 Z" id="Path"></path>
                <path d="M116.48286,28.26 C116.48286,25.14 115.64286,22.68 113.90286,20.82 C114.08286,20.64 114.20286,20.52 114.38286,20.34 C116.24286,18.48 116.90286,15.48 116.90286,11.76 C116.90286,3.72 114.32286,0 106.94286,0 L99.3828599,0 C98.1828599,0 97.2228599,0.96 97.2228599,2.16 L97.2228599,38.28 C97.2228599,39.48 98.1828599,40.44 99.3828599,40.44 L101.06286,40.44 C102.20286,40.44 103.16286,39.48 103.16286,38.28 L103.16286,23.58 L105.86286,23.58 C108.80286,23.58 110.48286,25.26 110.48286,28.26 L110.48286,38.28 C110.48286,39.48 111.44286,40.44 112.64286,40.44 L114.32286,40.44 C115.52286,40.44 116.48286,39.48 116.48286,38.28 L116.48286,28.26 Z M103.16286,6 L106.94286,6 C110.06286,6 110.96286,7.68 110.96286,11.76 C110.96286,15.84 109.22286,17.52 105.86286,17.52 L103.16286,17.52 L103.16286,6 Z" id="Shape"></path>
                <path d="M126.02286,1.32 C125.78286,0.72 124.76286,0.06 124.04286,0.06 L122.12286,0.06 C120.44286,0.06 119.48286,1.56 120.14286,3.06 C122.72286,9.06 125.36286,15 127.94286,21 L127.94286,38.34 C127.94286,39.54 128.90286,40.5 130.04286,40.5 L131.72286,40.5 C132.92286,40.5 133.88286,39.54 133.88286,38.34 L133.88286,21.06 L141.62286,3.06 C142.22286,1.56 141.26286,0.06 139.64286,0.06 L137.66286,0.06 C137.00286,0.06 135.98286,0.72 135.68286,1.32 L130.88286,12.36 L126.02286,1.32 Z" id="Path"></path>
                <path d="M2.18285987,53.06 C0.982859869,53.06 0.0228598688,54.02 0.0228598688,55.22 L0.0228598688,91.34 C0.0228598688,92.54 0.982859869,93.5 2.18285987,93.5 L3.86285987,93.5 C5.00285987,93.5 6.02285987,92.54 6.02285987,91.34 L6.02285987,76.22 L12.7428599,76.22 C13.9428599,76.22 14.9028599,75.26 14.9028599,74.06 L14.9028599,72.44 C14.9028599,71.24 13.9428599,70.28 12.7428599,70.28 L6.02285987,70.28 L6.02285987,59 L15.1428599,59 C16.3428599,59 17.3028599,58.04 17.3028599,56.84 L17.3028599,55.22 C17.3028599,54.02 16.3428599,53.06 15.1428599,53.06 L2.18285987,53.06 Z" id="Path"></path>
                <path d="M21.7428599,81.74 C21.7428599,86.48 23.0628599,89.24 24.9228599,91.1 C26.9028599,93.02 29.4228599,93.5 31.5828599,93.5 C33.8028599,93.5 36.3228599,93.02 38.3028599,91.1 C40.1628599,89.24 41.4228599,86.48 41.4228599,81.74 L41.4228599,64.76 C41.4228599,57.14 38.1828599,53.06 31.5828599,53.06 C25.0428599,53.06 21.7428599,57.2 21.7428599,64.76 L21.7428599,81.74 Z M27.7428599,64.76 C27.7428599,60.86 28.9428599,59 31.5828599,59 C34.1628599,59 35.4228599,60.74 35.4228599,64.76 L35.4228599,81.74 C35.4228599,85.82 34.1028599,87.56 31.5828599,87.56 C29.0028599,87.56 27.7428599,85.7 27.7428599,81.74 L27.7428599,64.76 Z" id="Shape"></path>
                <path d="M46.1028599,81.74 C46.1028599,86.48 47.4228599,89.24 49.2828599,91.1 C51.2628599,93.02 53.7828599,93.5 55.9428599,93.5 C58.1628599,93.5 60.6828599,93.02 62.6628599,91.1 C64.5228599,89.24 65.7828599,86.48 65.7828599,81.74 L65.7828599,64.76 C65.7828599,57.14 62.5428599,53.06 55.9428599,53.06 C49.4028599,53.06 46.1028599,57.2 46.1028599,64.76 L46.1028599,81.74 Z M52.1028599,64.76 C52.1028599,60.86 53.3028599,59 55.9428599,59 C58.5228599,59 59.7828599,60.74 59.7828599,64.76 L59.7828599,81.74 C59.7828599,85.82 58.4628599,87.56 55.9428599,87.56 C53.3628599,87.56 52.1028599,85.7 52.1028599,81.74 L52.1028599,64.76 Z" id="Shape"></path>
                <path d="M87.1428599,89.72 C87.1428599,88.52 86.1828599,87.56 84.9828599,87.56 L76.0428599,87.56 L76.0428599,55.22 C76.0428599,54.02 75.0828599,53.06 73.9428599,53.06 L72.2028599,53.06 C71.0028599,53.06 70.0428599,54.02 70.0428599,55.22 L70.0428599,91.34 C70.0428599,92.54 71.0028599,93.5 72.2028599,93.5 L84.9828599,93.5 C86.1828599,93.5 87.1428599,92.54 87.1428599,91.34 L87.1428599,89.72 Z" id="Path"></path>
                <path d="M96.3228599,55.22 C96.3228599,54.02 95.3028599,53.06 94.1628599,53.06 L92.4828599,53.06 C91.2828599,53.06 90.3228599,54.02 90.3228599,55.22 L90.3228599,91.34 C90.3228599,92.54 91.2828599,93.5 92.4828599,93.5 L94.1628599,93.5 C95.3028599,93.5 96.3228599,92.54 96.3228599,91.34 L96.3228599,55.22 Z" id="Path"></path>
                <path d="M100.40286,81.74 C100.40286,89.6 103.70286,93.44 110.30286,93.44 C116.66286,93.44 120.20286,89.84 120.20286,83.12 C120.20286,77.3 116.18286,74.24 112.22286,71.18 L112.28286,71.18 C109.34286,68.9 106.40286,66.56 106.40286,63.5 C106.40286,60.38 107.78286,59 110.30286,59 C112.94286,59 114.20286,60.8 114.20286,64.76 L114.20286,65.6 C114.20286,66.8 115.16286,67.76 116.36286,67.76 L118.04286,67.76 C119.24286,67.76 120.20286,66.8 120.20286,65.6 L120.20286,64.76 C120.20286,57.14 116.78286,53 110.30286,53 C103.94286,53 100.40286,56.9 100.40286,63.68 C100.40286,69.62 104.54286,72.86 108.50286,75.98 L108.50286,75.92 C111.44286,78.2 114.20286,80.42 114.20286,83.24 C114.20286,86.42 112.82286,87.5 110.30286,87.5 C109.46286,87.5 108.44286,87.38 107.78286,86.72 C106.94286,86 106.40286,84.62 106.40286,81.74 L106.40286,80.96 C106.40286,79.76 105.38286,78.8 104.24286,78.8 L102.56286,78.8 C101.36286,78.8 100.40286,79.76 100.40286,80.96 L100.40286,81.74 Z" id="Path"></path>
                <path d="M130.28286,70.34 L130.28286,55.22 C130.28286,54.02 129.32286,53.06 128.12286,53.06 L126.44286,53.06 C125.24286,53.06 124.28286,54.02 124.28286,55.22 L124.28286,91.34 C124.28286,92.54 125.24286,93.5 126.44286,93.5 L128.12286,93.5 C129.32286,93.5 130.28286,92.54 130.28286,91.34 L130.28286,76.28 L136.94286,76.28 L136.94286,91.34 C136.94286,92.54 137.90286,93.5 139.10286,93.5 L140.78286,93.5 C141.98286,93.5 142.94286,92.54 142.94286,91.34 L142.94286,55.22 C142.94286,54.02 141.98286,53.06 140.78286,53.06 L139.10286,53.06 C137.90286,53.06 136.94286,54.02 136.94286,55.22 L136.94286,70.34 L130.28286,70.34 Z" id="Path"></path>
                <path d="M17.4228599,107.8 C17.2428599,106.84 16.2828599,106.06 15.3228599,106.06 L14.0028599,106.06 C13.0428599,106.06 12.0828599,106.84 11.9028599,107.8 L8.78285987,126.04 L6.02285987,107.86 C5.84285987,106.84 4.88285987,106.06 3.86285987,106.06 L2.12285987,106.06 C0.742859869,106.06 -0.157140131,107.2 0.0228598688,108.52 L5.90285987,144.7 C6.08285987,145.66 6.98285987,146.5 8.00285987,146.5 L9.32285987,146.5 C10.2828599,146.5 11.2428599,145.72 11.4228599,144.76 L14.6628599,125.62 L17.8428599,144.76 C18.0228599,145.72 18.9828599,146.5 19.9428599,146.5 L21.3228599,146.5 C22.3428599,146.5 23.3028599,145.66 23.4828599,144.7 L29.2428599,108.52 C29.4228599,107.2 28.4028599,106.06 27.0828599,106.06 L25.3428599,106.06 C24.3228599,106.06 23.3028599,106.84 23.1828599,107.86 L20.4828599,125.92 L17.4228599,107.8 Z" id="Path"></path>
                <path d="M33.8628599,134.74 C33.8628599,139.48 35.1828599,142.24 37.0428599,144.1 C39.0228599,146.02 41.5428599,146.5 43.7028599,146.5 C45.9228599,146.5 48.4428599,146.02 50.4228599,144.1 C52.2828599,142.24 53.5428599,139.48 53.5428599,134.74 L53.5428599,117.76 C53.5428599,110.14 50.3028599,106.06 43.7028599,106.06 C37.1628599,106.06 33.8628599,110.2 33.8628599,117.76 L33.8628599,134.74 Z M39.8628599,117.76 C39.8628599,113.86 41.0628599,112 43.7028599,112 C46.2828599,112 47.5428599,113.74 47.5428599,117.76 L47.5428599,134.74 C47.5428599,138.82 46.2228599,140.56 43.7028599,140.56 C41.1228599,140.56 39.8628599,138.7 39.8628599,134.74 L39.8628599,117.76 Z" id="Shape"></path>
                <path d="M77.5428599,134.26 C77.5428599,131.14 76.7028599,128.68 74.9628599,126.82 C75.1428599,126.64 75.2628599,126.52 75.4428599,126.34 C77.3028599,124.48 77.9628599,121.48 77.9628599,117.76 C77.9628599,109.72 75.3828599,106 68.0028599,106 L60.4428599,106 C59.2428599,106 58.2828599,106.96 58.2828599,108.16 L58.2828599,144.28 C58.2828599,145.48 59.2428599,146.44 60.4428599,146.44 L62.1228599,146.44 C63.2628599,146.44 64.2228599,145.48 64.2228599,144.28 L64.2228599,129.58 L66.9228599,129.58 C69.8628599,129.58 71.5428599,131.26 71.5428599,134.26 L71.5428599,144.28 C71.5428599,145.48 72.5028599,146.44 73.7028599,146.44 L75.3828599,146.44 C76.5828599,146.44 77.5428599,145.48 77.5428599,144.28 L77.5428599,134.26 Z M64.2228599,112 L68.0028599,112 C71.1228599,112 72.0228599,113.68 72.0228599,117.76 C72.0228599,121.84 70.2828599,123.52 66.9228599,123.52 L64.2228599,123.52 L64.2228599,112 Z" id="Shape"></path>
                <path d="M88.0428599,121.18 L88.0428599,108.22 C88.0428599,107.02 87.0828599,106.06 85.8828599,106.06 L84.2028599,106.06 C83.0028599,106.06 82.0428599,107.02 82.0428599,108.22 L82.0428599,144.34 C82.0428599,145.54 83.0028599,146.5 84.2028599,146.5 L85.8828599,146.5 C87.0828599,146.5 88.0428599,145.54 88.0428599,144.34 L88.0428599,132.46 L88.7628599,131.38 L96.8028599,145.42 C97.1028599,145.96 98.0628599,146.5 98.6628599,146.5 L100.58286,146.5 C102.38286,146.5 103.34286,144.82 102.50286,143.26 L92.4228599,125.5 L102.44286,109.36 C103.40286,107.8 102.44286,106.06 100.58286,106.06 L98.5428599,106.06 C97.9428599,106.06 97.0428599,106.6 96.7428599,107.08 L88.0428599,121.18 Z" id="Path"></path>
            </g>
        </g>
    </g>
</svg>