<?xml version="1.0" encoding="UTF-8"?>
<svg width="190px" height="190px" viewBox="0 0 190 190" version="1.1" xmlns="http://www.w3.org/2000/svg" xmlns:xlink="http://www.w3.org/1999/xlink">
    <title>Desktop HD</title>
    <g id="Page-1" stroke="none" stroke-width="1" fill="none" fill-rule="evenodd">
        <g id="Desktop-HD" transform="translate(-80.000000, -80.000000)" fill="#000000" fill-rule="nonzero">
            <path d="M106,116.84 L106,101.72 C106,100.52 105.04,99.56 103.84,99.56 L102.16,99.56 C100.96,99.56 100,100.52 100,101.72 L100,137.84 C100,139.04 100.96,140 102.16,140 L103.84,140 C105.04,140 106,139.04 106,137.84 L106,122.78 L112.66,122.78 L112.66,137.84 C112.66,139.04 113.62,140 114.82,140 L116.5,140 C117.7,140 118.66,139.04 118.66,137.84 L118.66,101.72 C118.66,100.52 117.7,99.56 116.5,99.56 L114.82,99.56 C113.62,99.56 112.66,100.52 112.66,101.72 L112.66,116.84 L106,116.84 Z" id="Path"></path>
            <path d="M123,128.96 C123,135.32 125.64,139.94 132.84,139.94 C139.8,139.94 142.68,135.68 142.68,128.96 L142.68,101.66 C142.68,100.46 141.72,99.5 140.52,99.5 L138.84,99.5 C137.7,99.5 136.74,100.46 136.74,101.66 L136.74,128.96 C136.74,131.84 135.9,134 132.84,134 C129.9,134 128.94,132.14 128.94,128.96 L128.94,101.66 C128.94,100.46 127.98,99.5 126.78,99.5 L125.1,99.5 C123.96,99.5 123,100.46 123,101.66 L123,128.96 Z" id="Path"></path>
            <path d="M164.76,140 C165.96,140 166.92,139.04 166.92,137.84 L166.92,101.72 C166.92,100.52 165.96,99.56 164.76,99.56 L163.08,99.56 C161.88,99.56 160.92,100.52 160.92,101.72 L160.92,121.52 L152.58,100.88 C152.34,100.22 151.38,99.56 150.6,99.56 L149.16,99.56 C148.02,99.56 147,100.52 147,101.72 L147,137.84 C147,139.04 148.02,140 149.16,140 L150.9,140 C152.04,140 153.06,139.04 153.06,137.84 L153.06,118.04 L161.4,138.68 C161.64,139.34 162.66,140 163.38,140 L164.76,140 Z" id="Path"></path>
            <path d="M182.64,119.72 C179.1,119.72 179.28,125.72 182.64,125.72 L184.74,125.72 L184.74,128.3 C184.74,132.2 183.48,134.06 180.9,134.06 C178.26,134.06 177,132.2 177,128.3 C177,126.74 177,120.74 177,111.2 C177,108.44 177.54,107 178.38,106.28 C179.04,105.62 180.06,105.5 180.9,105.5 C181.74,105.5 182.7,105.62 183.42,106.28 C184.14,106.94 184.74,108.38 184.74,111.2 L184.74,112.04 C184.74,113.24 185.7,114.2 186.9,114.2 L188.64,114.2 C189.78,114.2 190.74,113.24 190.74,112.04 L190.74,111.2 C190.74,103.58 187.5,99.56 180.9,99.56 C174.3,99.56 171,103.58 171,111.2 L171,128.3 C171,135.86 174.3,140 180.9,140 C187.5,140 190.74,135.92 190.74,128.3 L190.74,121.88 C190.74,120.68 189.78,119.72 188.64,119.72 L182.64,119.72 Z" id="Path"></path>
            <path d="M213.26,127.76 C213.26,124.64 212.42,122.18 210.68,120.32 C210.86,120.14 210.98,120.02 211.16,119.84 C213.02,117.98 213.68,114.98 213.68,111.26 C213.68,103.22 211.1,99.5 203.72,99.5 L196.16,99.5 C194.96,99.5 194,100.46 194,101.66 L194,137.78 C194,138.98 194.96,139.94 196.16,139.94 L197.84,139.94 C198.98,139.94 199.94,138.98 199.94,137.78 L199.94,123.08 L202.64,123.08 C205.58,123.08 207.26,124.76 207.26,127.76 L207.26,137.78 C207.26,138.98 208.22,139.94 209.42,139.94 L211.1,139.94 C212.3,139.94 213.26,138.98 213.26,137.78 L213.26,127.76 Z M199.94,105.5 L203.72,105.5 C206.84,105.5 207.74,107.18 207.74,111.26 C207.74,115.34 206,117.02 202.64,117.02 L199.94,117.02 L199.94,105.5 Z" id="Shape"></path>
            <path d="M221.090004,100.82 C220.850004,100.22 219.830004,99.56 219.110004,99.56 L217.190004,99.56 C215.510004,99.56 214.550004,101.06 215.210004,102.56 C217.790004,108.56 220.430004,114.5 223.010004,120.5 L223.010004,137.84 C223.010004,139.04 223.970004,140 225.110004,140 L226.790004,140 C227.990004,140 228.950004,139.04 228.950004,137.84 L228.950004,120.56 L236.690004,102.56 C237.290004,101.06 236.330004,99.56 234.710004,99.56 L232.730004,99.56 C232.070004,99.56 231.050004,100.22 230.750004,100.82 L225.950004,111.86 L221.090004,100.82 Z" id="Path"></path>
            <path d="M102.16,152.56 C100.96,152.56 100,153.52 100,154.72 L100,190.84 C100,192.04 100.96,193 102.16,193 L103.84,193 C104.98,193 106,192.04 106,190.84 L106,175.72 L112.72,175.72 C113.92,175.72 114.88,174.76 114.88,173.56 L114.88,171.94 C114.88,170.74 113.92,169.78 112.72,169.78 L106,169.78 L106,158.5 L115.12,158.5 C116.32,158.5 117.28,157.54 117.28,156.34 L117.28,154.72 C117.28,153.52 116.32,152.56 115.12,152.56 L102.16,152.56 Z" id="Path"></path>
            <path d="M119,181.24 C119,185.98 120.32,188.74 122.18,190.6 C124.16,192.52 126.68,193 128.84,193 C131.06,193 133.58,192.52 135.56,190.6 C137.42,188.74 138.68,185.98 138.68,181.24 L138.68,164.26 C138.68,156.64 135.44,152.56 128.84,152.56 C122.3,152.56 119,156.7 119,164.26 L119,181.24 Z M125,164.26 C125,160.36 126.2,158.5 128.84,158.5 C131.42,158.5 132.68,160.24 132.68,164.26 L132.68,181.24 C132.68,185.32 131.36,187.06 128.84,187.06 C126.26,187.06 125,185.2 125,181.24 L125,164.26 Z" id="Shape"></path>
            <path d="M143,181.24 C143,185.98 144.32,188.74 146.18,190.6 C148.16,192.52 150.68,193 152.84,193 C155.06,193 157.58,192.52 159.56,190.6 C161.42,188.74 162.68,185.98 162.68,181.24 L162.68,164.26 C162.68,156.64 159.44,152.56 152.84,152.56 C146.3,152.56 143,156.7 143,164.26 L143,181.24 Z M149,164.26 C149,160.36 150.2,158.5 152.84,158.5 C155.42,158.5 156.68,160.24 156.68,164.26 L156.68,181.24 C156.68,185.32 155.36,187.06 152.84,187.06 C150.26,187.06 149,185.2 149,181.24 L149,164.26 Z" id="Shape"></path>
            <path d="M184.1,189.22 C184.1,188.02 183.14,187.06 181.94,187.06 L173,187.06 L173,154.72 C173,153.52 172.04,152.56 170.9,152.56 L169.16,152.56 C167.96,152.56 167,153.52 167,154.72 L167,190.84 C167,192.04 167.96,193 169.16,193 L181.94,193 C183.14,193 184.1,192.04 184.1,190.84 L184.1,189.22 Z" id="Path"></path>
            <path d="M192,154.72 C192,153.52 190.98,152.56 189.84,152.56 L188.16,152.56 C186.96,152.56 186,153.52 186,154.72 L186,190.84 C186,192.04 186.96,193 188.16,193 L189.84,193 C190.98,193 192,192.04 192,190.84 L192,154.72 Z" id="Path"></path>
            <path d="M196,181.24 C196,189.1 199.3,192.94 205.9,192.94 C212.26,192.94 215.8,189.34 215.8,182.62 C215.8,176.8 211.78,173.74 207.82,170.68 L207.88,170.68 C204.94,168.4 202,166.06 202,163 C202,159.88 203.38,158.5 205.9,158.5 C208.54,158.5 209.8,160.3 209.8,164.26 L209.8,165.1 C209.8,166.3 210.76,167.26 211.96,167.26 L213.64,167.26 C214.84,167.26 215.8,166.3 215.8,165.1 L215.8,164.26 C215.8,156.64 212.38,152.5 205.9,152.5 C199.54,152.5 196,156.4 196,163.18 C196,169.12 200.14,172.36 204.1,175.48 L204.1,175.42 C207.04,177.7 209.8,179.92 209.8,182.74 C209.8,185.92 208.42,187 205.9,187 C205.06,187 204.04,186.88 203.38,186.22 C202.54,185.5 202,184.12 202,181.24 L202,180.46 C202,179.26 200.98,178.3 199.84,178.3 L198.16,178.3 C196.96,178.3 196,179.26 196,180.46 L196,181.24 Z" id="Path"></path>
            <path d="M225,169.84 L225,154.72 C225,153.52 224.04,152.56 222.84,152.56 L221.16,152.56 C219.96,152.56 219,153.52 219,154.72 L219,190.84 C219,192.04 219.96,193 221.16,193 L222.84,193 C224.04,193 225,192.04 225,190.84 L225,175.78 L231.66,175.78 L231.66,190.84 C231.66,192.04 232.62,193 233.82,193 L235.5,193 C236.7,193 237.66,192.04 237.66,190.84 L237.66,154.72 C237.66,153.52 236.7,152.56 235.5,152.56 L233.82,152.56 C232.62,152.56 231.66,153.52 231.66,154.72 L231.66,169.84 L225,169.84 Z" id="Path"></path>
            <path d="M117.42286,207.3 C117.24286,206.34 116.28286,205.56 115.32286,205.56 L114.00286,205.56 C113.04286,205.56 112.08286,206.34 111.90286,207.3 L108.78286,225.54 L106.02286,207.36 C105.84286,206.34 104.88286,205.56 103.86286,205.56 L102.12286,205.56 C100.74286,205.56 99.8428599,206.7 100.02286,208.02 L105.90286,244.2 C106.08286,245.16 106.98286,246 108.00286,246 L109.32286,246 C110.28286,246 111.24286,245.22 111.42286,244.26 L114.66286,225.12 L117.84286,244.26 C118.02286,245.22 118.98286,246 119.94286,246 L121.32286,246 C122.34286,246 123.30286,245.16 123.48286,244.2 L129.24286,208.02 C129.42286,206.7 128.40286,205.56 127.08286,205.56 L125.34286,205.56 C124.32286,205.56 123.30286,206.34 123.18286,207.36 L120.48286,225.42 L117.42286,207.3 Z" id="Path"></path>
            <path d="M131,234.24 C131,238.98 132.32,241.74 134.18,243.6 C136.16,245.52 138.68,246 140.84,246 C143.06,246 145.58,245.52 147.56,243.6 C149.42,241.74 150.68,238.98 150.68,234.24 L150.68,217.26 C150.68,209.64 147.44,205.56 140.84,205.56 C134.3,205.56 131,209.7 131,217.26 L131,234.24 Z M137,217.26 C137,213.36 138.2,211.5 140.84,211.5 C143.42,211.5 144.68,213.24 144.68,217.26 L144.68,234.24 C144.68,238.32 143.36,240.06 140.84,240.06 C138.26,240.06 137,238.2 137,234.24 L137,217.26 Z" id="Shape"></path>
            <path d="M173.26,233.76 C173.26,230.64 172.42,228.18 170.68,226.32 C170.86,226.14 170.98,226.02 171.16,225.84 C173.02,223.98 173.68,220.98 173.68,217.26 C173.68,209.22 171.1,205.5 163.72,205.5 L156.16,205.5 C154.96,205.5 154,206.46 154,207.66 L154,243.78 C154,244.98 154.96,245.94 156.16,245.94 L157.84,245.94 C158.98,245.94 159.94,244.98 159.94,243.78 L159.94,229.08 L162.64,229.08 C165.58,229.08 167.26,230.76 167.26,233.76 L167.26,243.78 C167.26,244.98 168.22,245.94 169.42,245.94 L171.1,245.94 C172.3,245.94 173.26,244.98 173.26,243.78 L173.26,233.76 Z M159.94,211.5 L163.72,211.5 C166.84,211.5 167.74,213.18 167.74,217.26 C167.74,221.34 166,223.02 162.64,223.02 L159.94,223.02 L159.94,211.5 Z" id="Shape"></path>
            <path d="M184,220.68 L184,207.72 C184,206.52 183.04,205.56 181.84,205.56 L180.16,205.56 C178.96,205.56 178,206.52 178,207.72 L178,243.84 C178,245.04 178.96,246 180.16,246 L181.84,246 C183.04,246 184,245.04 184,243.84 L184,231.96 L184.72,230.88 L192.76,244.92 C193.06,245.46 194.02,246 194.62,246 L196.54,246 C198.34,246 199.3,244.32 198.46,242.76 L188.38,225 L198.4,208.86 C199.36,207.3 198.4,205.56 196.54,205.56 L194.5,205.56 C193.9,205.56 193,206.1 192.7,206.58 L184,220.68 Z" id="Path"></path>
        </g>
    </g>
</svg>